<?xml version="1.0" encoding="UTF-8" standalone="no"?>
<svg width="535px" height="304px" viewBox="0 0 535 304" version="1.1" xmlns="http://www.w3.org/2000/svg" xmlns:xlink="http://www.w3.org/1999/xlink" xmlns:sketch="http://www.bohemiancoding.com/sketch/ns">
    <!-- Generator: Sketch 3.3.1 (12002) - http://www.bohemiancoding.com/sketch -->
    <title>ELBv1</title>
    <desc>Created with Sketch.</desc>
    <defs></defs>
    <g id="Page-1" stroke="none" stroke-width="1" fill="none" fill-rule="evenodd" sketch:type="MSPage">
        <g id="AWS-logo" sketch:type="MSLayerGroup" transform="translate(11.000000, 100.000000)">
            <g id="g10" transform="translate(257.000000, 96.278670) scale(1, -1) translate(-257.000000, -96.278670) " sketch:type="MSShapeGroup">
                <g id="g12">
                    <path d="M142.864306,126.158257 L112.991379,136.118119 L112.991379,179.277523 L142.900862,170.424312 L142.864306,126.158257" id="path14" fill="#F68D11"></path>
                    <path d="M150.655172,170.424312 L180.564655,179.277523 L180.460526,136.147999 L150.655172,126.158257 L150.655172,170.424312" id="path16" fill="#F68D11"></path>
                    <path d="M174.471983,183.950912 L146.596345,192.557339 L119.084052,183.950912 L146.636224,176.572867 L174.471983,183.950912" id="path18" fill="#F68D11"></path>
                    <path d="M218.191892,126.158257 L188.318966,136.118119 L188.318966,179.277523 L218.228448,170.424312 L218.191892,126.158257" id="path20" fill="#F68D11"></path>
                    <path d="M225.982759,170.424312 L255.892241,179.277523 L255.788112,136.147999 L225.982759,126.158257 L225.982759,170.424312" id="path22" fill="#F68D11"></path>
                    <path d="M249.799569,183.950912 L221.923931,192.557339 L194.411638,183.950912 L221.96381,176.572867 L249.799569,183.950912" id="path24" fill="#F68D11"></path>
                    <path d="M29.9094828,107.345183 L0,116.198394 L0,73.0389908 L29.8731483,63.0791284 L29.9094828,107.345183" id="path26" fill="#F68D11"></path>
                    <path d="M37.6637931,107.345183 L67.5732759,116.198394 L67.4694789,73.0679851 L37.6637931,63.0791284 L37.6637931,107.345183" id="path28" fill="#F68D11"></path>
                    <path d="M61.4806034,120.871783 L33.6048547,129.478211 L6.09267241,120.871783 L33.6451772,113.493739 L61.4806034,120.871783" id="path30" fill="#F68D11"></path>
                    <path d="M105.200734,63.0791284 L75.3275862,73.0389908 L75.3275862,116.198394 L105.237069,107.345183 L105.200734,63.0791284" id="path32" fill="#F68D11"></path>
                    <path d="M112.991379,107.345183 L142.900862,116.198394 L142.796733,73.0679851 L112.991379,63.0791284 L112.991379,107.345183" id="path34" fill="#F68D11"></path>
                    <path d="M136.80819,120.871783 L108.932441,129.478211 L81.4202586,120.871783 L108.972763,113.493739 L136.80819,120.871783" id="path36" fill="#F68D11"></path>
                    <path d="M67.5369414,0 L37.6637931,9.95986239 L37.6637931,53.1192661 L67.5732759,44.266055 L67.5369414,0" id="path38" fill="#F68D11"></path>
                    <path d="M75.3275862,44.266055 L105.237069,53.1192661 L105.133272,9.98882345 L75.3275862,0 L75.3275862,44.266055" id="path40" fill="#F68D11"></path>
                    <path d="M99.1443966,57.7926548 L71.2686478,66.3990826 L43.7564655,57.7926548 L71.3089703,50.4144994 L99.1443966,57.7926548" id="path42" fill="#F68D11"></path>
                    <path d="M199.828578,38.1518062 L197.630784,38.1440596 C196.824336,38.1440596 195.796336,37.5998085 195.543767,36.7174753 L188.876168,13.2508222 L182.281681,36.6664587 C182.083392,37.4005006 181.391043,38.1440596 180.449448,38.1440596 L177.847323,38.1440596 C176.910159,38.1440596 176.226672,37.3905407 176.037246,36.6512976 L169.902478,13.4791244 L163.563884,36.7231193 C163.31353,37.5730275 162.260052,38.1440596 161.433664,38.1440596 L158.271013,38.1495929 C157.59528,38.1495929 156.967181,37.8595396 156.630422,37.392754 C156.402224,37.0762517 156.339082,36.7174753 156.444319,36.4053997 L166.236905,1.77193698 C166.452918,1.04353794 167.084341,0.309948704 168.008211,0.309948704 L171.153138,0.309948704 C172.002789,0.309948704 172.747203,0.928550224 172.962108,1.80608825 L178.989422,24.8763056 L185.548461,1.77971674 C185.745642,1.07250122 186.380388,0.309948704 187.30869,0.309948704 L190.402659,0.309948704 C191.263388,0.309948704 191.987862,0.90736781 192.200552,1.78274897 L201.62647,36.3911239 C201.737246,36.7244472 201.672996,37.0948435 201.448121,37.4070298 C201.116901,37.8665115 200.496556,38.1518062 199.828578,38.1518062" id="path44" fill="#100F0D"></path>
                    <path d="M227.021836,23.4476187 L210.407672,23.4476187 C210.789849,28.1055143 213.817353,32.9349409 218.946276,33.1208584 C224.404203,32.9427982 226.901091,28.223926 227.021836,23.4476187 L227.021836,23.4476187 Z M218.934091,38.3994748 C207.711388,38.3994748 202.60019,28.4876411 202.60019,19.2790843 C202.60019,7.78633268 208.954293,0.360958693 218.787866,0.360958693 C225.825457,0.360958693 231.190332,3.91305287 233.507763,10.1193751 C233.631832,10.4742782 233.59306,10.8594482 233.399203,11.2048452 C233.16325,11.6241554 232.715716,11.940547 232.186207,12.0568561 L229.07119,12.6521239 C228.234832,12.7831514 227.276621,12.2881462 226.959802,11.5701508 C225.446603,8.12178085 222.688284,6.16525442 219.226539,6.06324329 C215.895509,6.16612867 212.836987,8.14296216 211.435672,11.0963933 C210.296897,13.5088933 210.128517,15.8869765 210.109685,18.3051204 L232.664759,18.312867 C233.137772,18.312867 233.627401,18.5208068 233.973022,18.8706193 C234.262147,19.1606726 234.419448,19.5211089 234.416125,19.8820986 C234.360737,28.8347976 230.265353,38.3994748 218.934091,38.3994748 L218.934091,38.3994748 Z" id="path46" fill="#100F0D"></path>
                    <path d="M262.164371,19.2237517 C262.164371,17.1034077 261.779978,6.51584157 254.250543,6.24480052 C251.727069,6.34120092 249.177009,7.82307351 247.752431,10.0139002 C246.703384,11.6708561 246.090793,13.9615138 245.933491,16.7956479 L245.933491,23.0248779 C246.056453,27.7968693 249.4185,33.0335436 254.226172,33.2362821 C261.781086,32.9384822 262.164371,21.5123068 262.164371,19.2237517 L262.164371,19.2237517 Z M255.431414,38.7207357 L254.834332,38.7207357 C251.10894,38.7207357 248.181134,37.1748544 245.933491,34.0061795 L245.930168,48.6062311 C245.930168,49.4262597 245.082733,50.1732494 244.146677,50.1732494 L240.903159,50.1732494 C240.055724,50.1732494 239.107483,49.5027294 239.105267,48.6062311 L239.105267,3.02988974 C239.108591,2.20205917 239.956026,1.44989037 240.890974,1.44989037 L241.843647,1.4550695 C242.743147,1.4550695 243.383431,2.17915149 243.599444,2.85178526 L244.614151,6.06885401 C246.971461,2.72469742 250.521828,0.76039012 254.32144,0.76039012 L254.903013,0.76039012 C264.911612,0.76039012 269.391388,10.4855218 269.391388,20.1233486 C269.391388,24.920793 268.207194,29.507863 266.14344,32.7080774 C263.758435,36.4165768 259.653082,38.7207357 255.431414,38.7207357 L255.431414,38.7207357 Z" id="path48" fill="#100F0D"></path>
                    <path d="M304.907237,20.2495069 C302.798065,21.763406 300.262405,22.2691456 297.722315,22.7758813 L292.8515,23.6780235 C289.356522,24.2520436 287.333754,25.1883813 287.333754,28.2692987 C287.333754,31.5261737 290.712418,32.7711565 293.577082,32.8485115 C297.075384,32.7603114 299.70631,31.2010396 300.983556,28.4586468 C301.287082,27.8123624 301.959491,27.3775591 302.658487,27.3775591 C302.778125,27.3775591 302.899978,27.3909495 303.015185,27.4159599 L306.054875,28.0869226 C306.551151,28.1962597 307.014194,28.5360017 307.262332,28.9778876 C307.460621,29.3284748 307.503823,29.7113761 307.385293,30.0533314 C305.525366,35.4659633 300.802991,38.3264358 293.659056,38.3264358 C287.204147,38.31216 280.306134,35.4448263 280.306134,27.4363222 C280.306134,21.9627139 283.749047,18.4867219 290.546254,17.1034077 L295.998642,16.0654794 C298.991806,15.4931193 302.052543,14.4751107 302.052543,11.2644937 C302.052543,6.51151456 296.515966,6.02692299 294.842142,5.99234014 C291.086841,6.07318102 286.835263,7.74655963 285.802832,11.2900573 C285.595681,12.0690292 284.614207,12.6201416 283.753478,12.4411961 L280.574211,11.7858372 C280.095659,11.6851319 279.658095,11.3742735 279.40331,10.9545538 C279.189513,10.6048299 279.128586,10.213186 279.227177,9.85568222 C280.867767,3.97616519 286.549461,0.430557104 294.425625,0.370900849 L294.600651,0.369603853 C301.634918,0.369603853 309.15106,3.37875052 309.15106,11.8200327 C309.15106,15.2561852 307.603522,18.3284708 304.907237,20.2495069" id="path50" fill="#100F0D"></path>
                    <path d="M337.063254,23.4134232 L320.444659,23.4134232 C320.824621,28.0756347 323.852125,32.9072747 328.981047,33.0845602 C334.436759,32.9115906 336.93697,28.1932718 337.063254,23.4134232 L337.063254,23.4134232 Z M328.972185,38.3674925 C317.747267,38.3674925 312.634961,28.4552162 312.634961,19.2471021 C312.634961,7.75520258 318.990172,0.330698417 328.824853,0.330698417 C335.863552,0.330698417 341.228427,3.88321755 343.548073,10.0882561 C343.671034,10.4435908 343.632263,10.829624 343.437297,11.1758509 C343.201345,11.5956038 342.752703,11.9121061 342.224302,12.0262018 L339.104853,12.6214696 C338.374841,12.7398813 337.35681,12.3625132 336.997897,11.5381686 C335.483591,8.09195659 332.724164,6.13543016 329.265741,6.02909203 C325.931388,6.13543016 322.873974,8.11184312 321.478198,11.0643558 C320.337207,13.4712672 320.16772,15.851453 320.151103,18.2753515 L342.703961,18.2808847 C343.173651,18.2808847 343.659957,18.4876072 344.005578,18.8350958 C344.29581,19.1264771 344.453112,19.4870241 344.449789,19.8501164 C344.397724,28.80193 340.305664,38.3674925 328.972185,38.3674925 L328.972185,38.3674925 Z" id="path52" fill="#100F0D"></path>
                    <path d="M365.747556,37.9460797 C365.307776,37.9944404 364.884612,38.0177907 364.473634,38.0177907 C360.688422,38.0177907 357.614392,35.9618538 355.480849,32.0341267 L355.488603,35.4738205 C355.48528,36.306797 354.653353,37.0386256 353.708435,37.0386256 L350.891405,37.0386256 C349.967534,37.0386256 349.152224,36.3038091 349.145578,35.46043 L349.141147,2.04730505 C349.141147,1.20867357 349.956457,0.472488125 350.886974,0.472488125 L354.173694,0.47378512 C355.028884,0.47378512 355.991526,1.14425539 355.99928,2.04730505 L356.001496,18.8926416 C356.001496,21.6704472 356.260711,23.763125 357.588914,26.2389255 C359.486504,29.7654914 362.136263,31.4955195 365.689953,31.5231858 C366.580591,31.5296044 367.362668,32.3064736 367.362668,33.1861508 L367.362668,36.3115556 C367.362668,37.1294817 366.652595,37.8474771 365.747556,37.9460797" id="path54" fill="#100F0D"></path>
                    <path d="M400.255345,38.6022133 L397.659866,38.600996 C396.846772,38.600996 395.804371,38.0177907 395.551802,37.1623492 L387.138375,10.7457619 L378.546599,37.1359002 C378.292922,38.0121468 377.248306,38.600996 376.43078,38.600996 L372.72422,38.6044266 C372.044056,38.6044266 371.386047,38.3014255 371.049289,37.8332013 C370.823306,37.5197976 370.761272,37.1644518 370.873155,36.8328991 L382.632013,1.9854875 C382.857996,1.29598836 383.457293,0.490212253 384.405534,0.490212253 L388.890849,0.490212253 C389.713914,0.490212253 390.388539,1.05002181 390.697603,1.98851972 L402.103086,36.8216112 C402.217185,37.1523893 402.156259,37.5089524 401.931384,37.8232414 C401.592409,38.2957815 400.935509,38.6022133 400.255345,38.6022133" id="path56" fill="#100F0D"></path>
                    <path d="M408.782871,51.9970109 C406.392328,51.9970109 404.448211,50.0496365 404.448211,47.6534042 C404.448211,45.2577253 406.392328,43.3111256 408.782871,43.3111256 C411.174522,43.3111256 413.120853,45.2577253 413.120853,47.6534042 C413.120853,50.0496365 411.174522,51.9970109 408.782871,51.9970109" id="path58" fill="#100F0D"></path>
                    <path d="M410.56747,38.814469 L407.008241,38.8180103 C406.04006,38.8180103 405.158284,38.0354971 405.158284,37.1778423 L405.14056,1.69975011 C405.14056,1.27049111 405.362112,0.844254375 405.745397,0.527820694 C406.096556,0.240351399 406.545198,0.0743531393 406.996056,0.0743531393 L410.580763,0.068733453 L410.582978,0.068733453 C411.56556,0.0773791669 412.428504,0.838634799 412.428504,1.69758108 L412.428504,37.1778423 C412.428504,38.0497729 411.557806,38.814469 410.56747,38.814469" id="path60" fill="#100F0D"></path>
                    <path d="M443.830138,14.7560894 L440.858022,14.7448016 C440.02831,14.7448016 439.332638,14.2468085 439.023573,13.3818498 C437.93797,8.70277282 435.478746,6.27808859 431.75003,6.1708762 C424.487565,6.38658469 423.923716,16.4990654 423.923716,19.5933733 C423.923716,25.76384 426.062797,32.422672 432.034724,32.5986296 C435.639371,32.4879644 438.261435,29.9059255 439.047944,25.6985476 C439.196384,24.8400075 439.856608,24.1902924 440.758323,24.077414 L443.938698,24.0463171 C444.889155,24.1492357 445.634677,24.8676737 445.62803,25.7586388 C444.502547,33.3621084 439.228509,38.2767471 432.179841,38.2767471 L431.936134,38.2702179 L431.660302,38.2767471 C421.409103,38.2767471 416.819659,28.7189312 416.819659,19.2471021 C416.819659,10.5628989 420.68906,0.422775132 431.602698,0.422775132 L432.12556,0.422775132 C438.998095,0.422775132 444.185728,5.23541273 445.671233,13.0385665 C445.704466,13.4104014 445.575966,13.7821256 445.312319,14.0843521 C444.971129,14.475996 444.42722,14.7270952 443.830138,14.7560894" id="path62" fill="#100F0D"></path>
                    <path d="M473.183526,23.4134232 L456.562716,23.4134232 C456.942677,28.0769627 459.971289,32.9072747 465.103534,33.0845602 C470.560353,32.9115906 473.059457,28.1932718 473.183526,23.4134232 L473.183526,23.4134232 Z M465.092457,38.3674925 C453.868647,38.3674925 448.757448,28.4552162 448.757448,19.2471021 C448.757448,7.75520258 455.112659,0.330698417 464.947341,0.330698417 C471.982716,0.330698417 477.345375,3.88105958 479.667237,10.0869502 C479.787983,10.444454 479.748103,10.8317819 479.554246,11.1758509 C479.31497,11.5987024 478.879621,11.9077901 478.342358,12.0262018 L475.227341,12.6214696 C474.494004,12.7398813 473.479297,12.3625132 473.120384,11.5381686 C471.601647,8.09195659 468.841112,6.13543016 465.383797,6.02779725 C462.050552,6.13543016 458.994246,8.11184312 457.59847,11.0643558 C456.456371,13.4748085 456.286884,15.8549943 456.269159,18.2753515 L478.824233,18.2787821 C479.298353,18.2787821 479.787983,18.4876072 480.134711,18.8385264 C480.422728,19.1316783 480.577815,19.492668 480.572276,19.8501164 C480.520211,28.80193 476.427043,38.3674925 465.092457,38.3674925 L465.092457,38.3674925 Z" id="path64" fill="#100F0D"></path>
                    <path d="M508.827875,20.2495069 C506.715379,21.7647339 504.176397,22.270031 501.640737,22.7758813 L496.769922,23.6780235 C493.278267,24.2520436 491.256608,25.1883813 491.256608,28.2692987 C491.256608,32.470258 496.475259,32.8212878 497.493289,32.8485115 C500.994914,32.7603114 503.625841,31.2010396 504.900871,28.4573188 C505.206612,27.8111451 505.881237,27.3775591 506.581341,27.3775591 C506.702086,27.3775591 506.822832,27.3909495 506.940254,27.4159599 L509.977728,28.0869226 C510.474004,28.1962597 510.93594,28.5373297 511.184078,28.9786623 C511.381259,29.3296921 511.424461,29.7113761 511.305931,30.0533314 C509.44822,35.4659633 504.724737,38.3264358 497.577478,38.3264358 C491.124784,38.31216 484.228987,35.4448263 484.228987,27.4363222 C484.228987,21.9613859 487.670793,18.4853939 494.466892,17.1034077 L499.921496,16.0654794 C502.914659,15.4931193 505.975397,14.4751107 505.975397,11.2644937 C505.975397,6.51151456 500.438819,6.02692299 498.764996,5.99234014 C495.28331,6.06669604 490.826797,7.50318486 489.726793,11.2856307 C489.525181,12.0690292 488.544815,12.6192563 487.668578,12.4411961 L484.494849,11.7858372 C484.014082,11.6838039 483.575409,11.3708429 483.320625,10.9502268 C483.109043,10.5996507 483.048116,10.2110169 483.147815,9.85568222 C484.783974,3.97616519 490.46456,0.430557104 498.341832,0.370900849 L498.516858,0.369603853 C505.552233,0.369603853 513.069483,3.37875052 513.069483,11.8200327 C513.069483,15.2583985 511.523052,18.3314587 508.827875,20.2495069" id="path66" fill="#100F0D"></path>
                    <path d="M364.136875,107.12164 L364.136875,115.178062 C364.141306,116.399805 365.069608,117.219834 366.184013,117.218727 L402.31356,117.219834 C403.466737,117.219834 404.397254,116.379885 404.397254,115.186915 L404.397254,108.278091 C404.386177,107.12164 403.408026,105.609511 401.675491,103.208189 L382.962125,76.5149828 C389.905556,76.6796525 397.256642,75.6409495 403.566435,72.0970092 C404.992121,71.2982282 405.370974,70.1128939 405.487289,68.9556686 L405.487289,60.3592007 C405.487289,59.1738664 404.188996,57.8039427 402.826453,58.5176221 C391.705664,64.338387 376.946996,64.9738263 364.647552,58.4502271 C363.392461,57.7805923 362.076444,59.129379 362.076444,60.3147133 L362.076444,68.4831284 C362.076444,69.7864318 362.10303,72.0252982 363.420155,74.0193733 L385.10453,105.092152 L366.227216,105.096468 C365.071823,105.096468 364.147953,105.917825 364.136875,107.12164" id="path68" fill="#100F0D"></path>
                    <path d="M232.346832,56.8222322 L221.352328,56.8222322 C220.307711,56.8905126 219.471353,57.6776737 219.388272,58.6815172 L219.396026,115.040837 C219.396026,116.168515 220.346483,117.069329 221.516276,117.069329 L231.753073,117.074862 C232.825384,117.015103 233.682789,116.207248 233.755901,115.182489 L233.755901,107.818498 L233.959728,107.818498 C236.624996,114.937919 241.653112,118.253446 248.423733,118.253446 C255.297375,118.253446 259.607664,114.937919 262.686125,107.818498 C265.355823,114.937919 271.407509,118.253446 277.876819,118.253446 C282.493957,118.253446 287.515427,116.358859 290.593888,112.091611 C294.08222,107.345183 293.363284,100.470997 293.363284,94.4198274 L293.356638,58.8527162 C293.356638,57.7282477 292.407289,56.8222322 291.238603,56.8222322 L280.260716,56.8222322 C279.155172,56.8905126 278.285582,57.7715178 278.285582,58.8475149 L278.285582,88.7279874 C278.285582,91.0985453 278.488302,97.0308607 277.976517,99.2822322 C277.153453,103.080702 274.689797,104.141981 271.513853,104.141981 C268.843047,104.141981 266.071435,102.363039 264.942629,99.5229289 C263.814931,96.6720843 263.91906,91.9285338 263.91906,88.7279874 L263.91906,58.8527162 C263.91906,57.7282477 262.969711,56.8222322 261.79881,56.8222322 L250.818707,56.8222322 C249.718703,56.8905126 248.846897,57.7715178 248.846897,58.8475149 L248.832496,88.7279874 C248.832496,95.0142099 249.861603,104.260835 242.065198,104.260835 C234.164664,104.260835 234.472621,95.2498159 234.472621,88.7279874 L234.465974,58.8527162 C234.470405,57.7282477 233.519948,56.8222322 232.346832,56.8222322" id="path70" fill="#100F0D"></path>
                    <path d="M435.602815,106.753789 C427.492914,106.753789 426.982237,95.725344 426.982237,88.8441858 C426.982237,81.9670115 426.880323,67.2623813 435.503116,67.2623813 C444.020672,67.2623813 444.429435,79.1221428 444.429435,86.3555482 C444.429435,91.0985453 444.226716,96.7896107 442.789953,101.29667 C441.554802,105.211892 439.09447,106.753789 435.602815,106.753789 L435.602815,106.753789 Z M435.503116,118.253446 C451.81597,118.253446 460.641483,104.260835 460.641483,86.4779438 C460.641483,69.2777041 450.889884,55.6382259 435.503116,55.6382259 C419.494897,55.6382259 410.771297,69.6347099 410.771297,87.0680103 C410.771297,104.619612 419.593487,118.253446 435.503116,118.253446 L435.503116,118.253446 Z" id="path72" fill="#100F0D"></path>
                    <path d="M481.799672,56.8222322 L470.847263,56.8222322 C469.743935,56.8905126 468.874345,57.7715178 468.874345,58.8475149 L468.858836,115.232288 C468.949672,116.25926 469.862466,117.069329 470.965793,117.069329 L481.164927,117.074862 C482.126461,117.021743 482.915185,116.368819 483.116797,115.495671 L483.116797,106.871869 L483.325056,106.871869 C486.399086,114.581577 490.711591,118.253446 498.300845,118.253446 C503.227047,118.253446 508.052444,116.479484 511.12869,111.615751 C514,107.110905 514,99.5229289 514,94.066695 L514,58.5994037 C513.877039,57.5998761 512.985293,56.8222322 511.89969,56.8222322 L500.875276,56.8222322 C499.858353,56.88841 499.040828,57.6388303 498.917866,58.5994037 L498.917866,89.2021875 C498.917866,95.3686703 499.637909,104.384006 492.042009,104.384006 C489.375634,104.384006 486.916409,102.600858 485.683474,99.8766147 C484.142582,96.4385808 483.938754,92.9997724 483.938754,89.2021875 L483.938754,58.8527162 C483.919922,57.7282477 482.969466,56.8222322 481.799672,56.8222322" id="path74" fill="#100F0D"></path>
                    <path d="M346.417168,56.9648796 C345.688263,56.3151646 344.644754,56.2718945 343.822797,56.7093538 C340.172733,59.7405826 339.51694,61.1459192 337.521866,64.0288567 C331.487905,57.8891548 327.21528,56.0475763 319.402259,56.0475763 C310.14472,56.0475763 302.94872,61.7533601 302.94872,73.1630464 C302.94872,82.074578 307.779655,88.1365929 314.668806,91.1098331 C320.632978,93.7251823 328.963323,94.2014851 335.337366,94.9169352 L335.337366,96.3413062 C335.337366,98.9545528 335.542302,102.046205 333.998086,104.30322 C332.665453,106.323744 330.094345,107.153733 327.828978,107.153733 C323.636112,107.153733 319.91072,105.006497 318.993496,100.558312 C318.807392,99.5705149 318.080703,98.5892471 317.084828,98.5416611 L306.433728,99.6945705 C305.532013,99.8968664 304.533922,100.615415 304.794246,101.986999 C307.242392,114.901399 318.913737,118.803452 329.374302,118.803452 C334.718129,118.803452 341.713625,117.378085 345.929754,113.337701 C351.27469,108.343715 350.759582,101.688756 350.759582,94.4379765 L350.759582,77.3306955 C350.759582,72.1847666 352.900879,69.9260912 354.913677,67.1526015 C355.610457,66.1522993 355.767759,64.966965 354.87269,64.2333658 C352.628371,62.3541611 348.639332,58.8958756 346.447078,56.9406439 L346.417168,56.9648796 L346.417168,56.9648796 Z M335.337366,83.7415269 C335.337366,79.4618847 335.43928,75.8929341 333.279151,72.0926932 C331.531108,68.9997133 328.752849,67.0998142 325.667741,67.0998142 C321.456043,67.0998142 318.989065,70.3077752 318.989065,75.0642735 C318.989065,84.4145923 327.388091,86.1169541 335.337366,86.1169541 L335.337366,83.7415269 L335.337366,83.7415269 Z" id="path76" fill="#100F0D"></path>
                    <path d="M202.326573,56.9648796 C201.599884,56.3151646 200.548621,56.2718945 199.726664,56.7093538 C196.076599,59.7405826 195.423022,61.1459192 193.425733,64.0288567 C187.395095,57.8891548 183.120254,56.0475763 175.302802,56.0475763 C166.048586,56.0475763 158.850371,61.7533601 158.850371,73.1630464 C158.850371,82.074578 163.685737,88.1365929 170.574888,91.1098331 C176.540168,93.7251823 184.869405,94.2014851 191.243448,94.9169352 L191.243448,96.3413062 C191.243448,98.9545528 191.450599,102.046205 189.906384,104.30322 C188.570427,106.323744 185.997103,107.153733 183.738384,107.153733 C179.545517,107.153733 175.815694,105.006497 174.901793,100.558312 C174.711259,99.5705149 173.987892,98.5892471 172.993125,98.5416611 L162.337595,99.6945705 C161.438095,99.8968664 160.438897,100.615415 160.697004,101.986999 C163.145151,114.901399 174.817603,118.803452 185.27706,118.803452 C190.627534,118.803452 197.617491,117.378085 201.834728,113.337701 C207.181879,108.343715 206.665664,101.688756 206.665664,94.4379765 L206.665664,77.3306955 C206.665664,72.1847666 208.808069,69.9260912 210.815328,67.1526015 C211.515431,66.1522993 211.673841,64.966965 210.780987,64.2333658 C208.534453,62.3541611 204.543198,58.8958756 202.352052,56.9406439 L202.326573,56.9648796 L202.326573,56.9648796 Z M191.243448,83.7415269 C191.243448,79.4618847 191.344254,75.8929341 189.188556,72.0926932 C187.441621,68.9997133 184.661147,67.0998142 181.58047,67.0998142 C177.359909,67.0998142 174.894039,70.3077752 174.894039,75.0642735 C174.894039,84.4145923 183.290849,86.1169541 191.243448,86.1169541 L191.243448,83.7415269 L191.243448,83.7415269 Z" id="path78" fill="#100F0D"></path>
                </g>
            </g>
        </g>
        <g id="Title-Vector" sketch:type="MSLayerGroup" transform="translate(9.000000, -1.000000)" fill="#F68D11">
            <path d="M37.4365234,59.7412109 L11.4511719,59.7412109 L4.28417969,79 L0.840820312,79 L22.8623047,21.2236328 L26.0654297,21.2236328 L48.046875,79 L44.6435547,79 L37.4365234,59.7412109 Z M12.4921875,56.8984375 L36.4355469,56.8984375 L24.5439453,25.3476562 L24.34375,25.3476562 L12.4921875,56.8984375 Z M72.8310547,35.3173828 C75.5270317,35.3173828 77.9960825,35.8512316 80.2382812,36.9189453 C82.48048,37.986659 84.4023357,39.4947819 86.0039062,41.4433594 C87.6054768,43.3919368 88.8533484,45.7275254 89.7475586,48.4501953 C90.6417688,51.1728652 91.0888672,54.1757648 91.0888672,57.4589844 C91.0888672,60.7422039 90.6484419,63.7451036 89.7675781,66.4677734 C88.8867143,69.1904433 87.6455158,71.5193588 86.0439453,73.4545898 C84.4423748,75.3898209 82.520519,76.8912707 80.2783203,77.9589844 C78.0361216,79.026698 75.5670708,79.5605469 72.8710938,79.5605469 C70.8691306,79.5605469 69.0006597,79.2535838 67.265625,78.6396484 C65.5305903,78.0257131 63.9757556,77.1849012 62.6010742,76.1171875 C61.2263929,75.0494738 60.0519254,73.788256 59.0776367,72.3334961 C58.103348,70.8787362 57.375979,69.3105553 56.8955078,67.6289062 L56.7753906,67.6289062 L56.7753906,92.8134766 L53.6523438,92.8134766 L53.6523438,35.8779297 L56.5751953,35.8779297 L56.5751953,47.4091797 L56.6953125,47.4091797 C57.1757837,45.7008378 57.9164989,44.1059644 58.9174805,42.6245117 C59.918462,41.143059 61.1196219,39.8618218 62.5209961,38.7807617 C63.9223703,37.6997016 65.4972243,36.8522166 67.2456055,36.2382812 C68.9939866,35.6243459 70.8557844,35.3173828 72.8310547,35.3173828 L72.8310547,35.3173828 Z M72.4707031,76.7578125 C74.7662875,76.7578125 76.8616442,76.2906948 78.7568359,75.3564453 C80.6520277,74.4221958 82.2802666,73.1075931 83.6416016,71.4125977 C85.0029365,69.7176022 86.0572879,67.6889767 86.8046875,65.3266602 C87.5520871,62.9643437 87.9257812,60.3418113 87.9257812,57.4589844 C87.9257812,54.5761575 87.5520871,51.9536251 86.8046875,49.5913086 C86.0572879,47.2289921 85.0029365,45.2003665 83.6416016,43.5053711 C82.2802666,41.8103756 80.6520277,40.4957729 78.7568359,39.5615234 C76.8616442,38.627274 74.7662875,38.1601562 72.4707031,38.1601562 C70.1484259,38.1601562 68.0263768,38.627274 66.1044922,39.5615234 C64.1826076,40.4957729 62.5343493,41.8170487 61.159668,43.5253906 C59.7849866,45.2337325 58.7106158,47.2690312 57.9365234,49.6313477 C57.162431,51.9936642 56.7753906,54.6028503 56.7753906,57.4589844 C56.7753906,60.3151184 57.162431,62.9243046 57.9365234,65.2866211 C58.7106158,67.6489376 59.7849866,69.6775631 61.159668,71.3725586 C62.5343493,73.067554 64.1826076,74.3888299 66.1044922,75.3364258 C68.0263768,76.2840217 70.1484259,76.7578125 72.4707031,76.7578125 L72.4707031,76.7578125 Z M117.634766,35.3173828 C120.330743,35.3173828 122.799793,35.8512316 125.041992,36.9189453 C127.284191,37.986659 129.206047,39.4947819 130.807617,41.4433594 C132.409188,43.3919368 133.657059,45.7275254 134.55127,48.4501953 C135.44548,51.1728652 135.892578,54.1757648 135.892578,57.4589844 C135.892578,60.7422039 135.452153,63.7451036 134.571289,66.4677734 C133.690425,69.1904433 132.449227,71.5193588 130.847656,73.4545898 C129.246086,75.3898209 127.32423,76.8912707 125.082031,77.9589844 C122.839833,79.026698 120.370782,79.5605469 117.674805,79.5605469 C115.672842,79.5605469 113.804371,79.2535838 112.069336,78.6396484 C110.334301,78.0257131 108.779467,77.1849012 107.404785,76.1171875 C106.030104,75.0494738 104.855636,73.788256 103.881348,72.3334961 C102.907059,70.8787362 102.17969,69.3105553 101.699219,67.6289062 L101.579102,67.6289062 L101.579102,92.8134766 L98.4560547,92.8134766 L98.4560547,35.8779297 L101.378906,35.8779297 L101.378906,47.4091797 L101.499023,47.4091797 C101.979495,45.7008378 102.72021,44.1059644 103.721191,42.6245117 C104.722173,41.143059 105.923333,39.8618218 107.324707,38.7807617 C108.726081,37.6997016 110.300935,36.8522166 112.049316,36.2382812 C113.797698,35.6243459 115.659495,35.3173828 117.634766,35.3173828 L117.634766,35.3173828 Z M117.274414,76.7578125 C119.569998,76.7578125 121.665355,76.2906948 123.560547,75.3564453 C125.455739,74.4221958 127.083978,73.1075931 128.445312,71.4125977 C129.806647,69.7176022 130.860999,67.6889767 131.608398,65.3266602 C132.355798,62.9643437 132.729492,60.3418113 132.729492,57.4589844 C132.729492,54.5761575 132.355798,51.9536251 131.608398,49.5913086 C130.860999,47.2289921 129.806647,45.2003665 128.445312,43.5053711 C127.083978,41.8103756 125.455739,40.4957729 123.560547,39.5615234 C121.665355,38.627274 119.569998,38.1601562 117.274414,38.1601562 C114.952137,38.1601562 112.830088,38.627274 110.908203,39.5615234 C108.986319,40.4957729 107.33806,41.8170487 105.963379,43.5253906 C104.588698,45.2337325 103.514327,47.2690312 102.740234,49.6313477 C101.966142,51.9936642 101.579102,54.6028503 101.579102,57.4589844 C101.579102,60.3151184 101.966142,62.9243046 102.740234,65.2866211 C103.514327,67.6489376 104.588698,69.6775631 105.963379,71.3725586 C107.33806,73.067554 108.986319,74.3888299 110.908203,75.3364258 C112.830088,76.2840217 114.952137,76.7578125 117.274414,76.7578125 L117.274414,76.7578125 Z M143.660156,18.7011719 L146.783203,18.7011719 L146.783203,79 L143.660156,79 L143.660156,18.7011719 Z M157.113281,35.8779297 L160.236328,35.8779297 L160.236328,79 L157.113281,79 L157.113281,35.8779297 Z M158.674805,25.3076172 C157.980791,25.3076172 157.393557,25.0740583 156.913086,24.6069336 C156.432615,24.1398089 156.192383,23.5592483 156.192383,22.8652344 C156.192383,22.1712205 156.432615,21.5839868 156.913086,21.1035156 C157.393557,20.6230445 157.980791,20.3828125 158.674805,20.3828125 C159.368819,20.3828125 159.962725,20.6230445 160.456543,21.1035156 C160.950361,21.5839868 161.197266,22.1712205 161.197266,22.8652344 C161.197266,23.5592483 160.950361,24.1398089 160.456543,24.6069336 C159.962725,25.0740583 159.368819,25.3076172 158.674805,25.3076172 L158.674805,25.3076172 Z M201.116211,48.8505859 C200.795897,47.3024011 200.235356,45.8743555 199.43457,44.5664062 C198.633785,43.258457 197.619472,42.1307014 196.391602,41.1831055 C195.163731,40.2355096 193.755705,39.4947943 192.16748,38.9609375 C190.579256,38.4270807 188.850921,38.1601562 186.982422,38.1601562 C184.553373,38.1601562 182.364593,38.6139278 180.416016,39.5214844 C178.467438,40.429041 176.805834,41.7236244 175.431152,43.4052734 C174.056471,45.0869225 172.995446,47.115548 172.248047,49.4912109 C171.500647,51.8668739 171.126953,54.5227718 171.126953,57.4589844 C171.126953,60.4218898 171.500647,63.091134 172.248047,65.4667969 C172.995446,67.8424598 174.056471,69.8644122 175.431152,71.5327148 C176.805834,73.2010175 178.474111,74.4889278 180.436035,75.3964844 C182.397959,76.304041 184.593412,76.7578125 187.022461,76.7578125 C188.864267,76.7578125 190.572583,76.5109074 192.147461,76.0170898 C193.722339,75.5232723 195.117019,74.8225957 196.331543,73.9150391 C197.546067,73.0074824 198.56038,71.9130923 199.374512,70.6318359 C200.188643,69.3505795 200.755858,67.9358801 201.076172,66.3876953 L204.199219,66.3876953 C203.878905,68.3362728 203.231613,70.1179932 202.257324,71.7329102 C201.283035,73.3478271 200.04851,74.735834 198.553711,75.8969727 C197.058912,77.0581113 195.330576,77.9589812 193.368652,78.5996094 C191.406728,79.2402376 189.291352,79.5605469 187.022461,79.5605469 C184.139634,79.5605469 181.523775,79.0467174 179.174805,78.019043 C176.825835,76.9913686 174.823902,75.5166112 173.168945,73.5947266 C171.513989,71.672842 170.239425,69.3505996 169.345215,66.6279297 C168.451005,63.9052598 168.003906,60.8489753 168.003906,57.4589844 C168.003906,54.0956863 168.451005,51.0460749 169.345215,48.3100586 C170.239425,45.5740423 171.513989,43.2451268 173.168945,41.3232422 C174.823902,39.4013576 176.819161,37.9199271 179.154785,36.8789062 C181.490409,35.8378854 184.099595,35.3173828 186.982422,35.3173828 C189.304699,35.3173828 191.446768,35.6643846 193.408691,36.3583984 C195.370615,37.0524123 197.098951,38.0066671 198.59375,39.2211914 C200.088549,40.4357157 201.316401,41.8704344 202.277344,43.5253906 C203.238286,45.1803468 203.878905,46.9553942 204.199219,48.8505859 L201.116211,48.8505859 Z M224.699219,76.7978516 C226.861339,76.7978516 228.883291,76.4375036 230.765137,75.7167969 C232.646982,74.9960901 234.288567,74.0151429 235.689941,72.7739258 C237.091316,71.5327086 238.192379,70.0779706 238.993164,68.409668 C239.793949,66.7413654 240.194336,64.9462987 240.194336,63.0244141 L240.194336,56.578125 L225.820312,57.6591797 C221.682922,57.9528009 218.533214,58.9204019 216.371094,60.5620117 C214.208974,62.2036215 213.12793,64.4791521 213.12793,67.3886719 C213.12793,68.7500068 213.414873,70.0112247 213.98877,71.1723633 C214.562666,72.3335019 215.363439,73.3277953 216.391113,74.1552734 C217.418788,74.9827515 218.639967,75.6300432 220.054688,76.097168 C221.469408,76.5642927 223.01757,76.7978516 224.699219,76.7978516 L224.699219,76.7978516 Z M224.298828,79.5605469 C222.190094,79.5605469 220.261565,79.26693 218.513184,78.6796875 C216.764802,78.092445 215.25668,77.2583062 213.98877,76.1772461 C212.72086,75.096186 211.739912,73.8149488 211.045898,72.3334961 C210.351885,70.8520434 210.004883,69.2037851 210.004883,67.3886719 C210.004883,63.6783669 211.299466,60.7889101 213.888672,58.7202148 C216.477878,56.6515196 220.321589,55.4303404 225.419922,55.0566406 L240.194336,53.9755859 L240.194336,50.1318359 C240.194336,48.263337 239.914065,46.5817132 239.353516,45.0869141 C238.792966,43.5921149 237.98552,42.3375702 236.931152,41.3232422 C235.876785,40.3089142 234.588875,39.5281603 233.067383,38.980957 C231.545891,38.4337538 229.810882,38.1601562 227.862305,38.1601562 C224.178693,38.1601562 221.189139,39.0476799 218.893555,40.8227539 C216.59797,42.5978279 215.183271,45.1269367 214.649414,48.4101562 L211.646484,48.4101562 C211.833334,46.4081931 212.36051,44.6064533 213.228027,43.0048828 C214.095545,41.4033123 215.236647,40.0286516 216.651367,38.8808594 C218.066088,37.7330672 219.727692,36.8522166 221.63623,36.2382812 C223.544769,35.6243459 225.633452,35.3173828 227.902344,35.3173828 C230.251314,35.3173828 232.380036,35.6577114 234.288574,36.3383789 C236.197112,37.0190464 237.812005,37.9866474 239.133301,39.2412109 C240.454596,40.4957745 241.475582,42.0305899 242.196289,43.8457031 C242.916996,45.6608164 243.277344,47.6894419 243.277344,49.9316406 L243.277344,79 L240.274414,79 L240.274414,69.7109375 L240.194336,69.7109375 C239.660479,71.1790438 238.879725,72.5136659 237.852051,73.7148438 C236.824376,74.9160216 235.60987,75.9503537 234.208496,76.8178711 C232.807122,77.6853885 231.265633,78.3593726 229.583984,78.8398438 C227.902335,79.3203149 226.140634,79.5605469 224.298828,79.5605469 L224.298828,79.5605469 Z M258.051758,24.7871094 L258.051758,35.8779297 L267.020508,35.8779297 L267.020508,38.6005859 L258.051758,38.6005859 L258.051758,69.1103516 C258.051758,71.6995572 258.552241,73.5480088 259.553223,74.6557617 C260.554204,75.7635147 262.135731,76.3173828 264.297852,76.3173828 L264.898438,76.3173828 C265.245444,76.3173828 265.612466,76.3107097 265.999512,76.2973633 C266.386558,76.2840169 266.740233,76.2706706 267.060547,76.2573242 C267.380861,76.2439778 267.554362,76.2373047 267.581055,76.2373047 L267.581055,79 C267.527669,79 267.327476,79.0066731 266.980469,79.0200195 C266.633462,79.033366 266.253095,79.0467122 265.839355,79.0600586 C265.425616,79.073405 265.02523,79.0800781 264.638184,79.0800781 L263.897461,79.0800781 C262.322583,79.0800781 260.974615,78.8999041 259.853516,78.5395508 C258.732416,78.1791974 257.811527,77.6053099 257.09082,76.8178711 C256.370114,76.0304323 255.836265,75.0094464 255.489258,73.7548828 C255.142251,72.5003192 254.96875,70.9788501 254.96875,69.1904297 L254.96875,38.6005859 L248.642578,38.6005859 L248.642578,35.8779297 L254.96875,35.8779297 L254.96875,24.7871094 L258.051758,24.7871094 Z M275.02832,35.8779297 L278.151367,35.8779297 L278.151367,79 L275.02832,79 L275.02832,35.8779297 Z M276.589844,25.3076172 C275.89583,25.3076172 275.308596,25.0740583 274.828125,24.6069336 C274.347654,24.1398089 274.107422,23.5592483 274.107422,22.8652344 C274.107422,22.1712205 274.347654,21.5839868 274.828125,21.1035156 C275.308596,20.6230445 275.89583,20.3828125 276.589844,20.3828125 C277.283858,20.3828125 277.877764,20.6230445 278.371582,21.1035156 C278.8654,21.5839868 279.112305,22.1712205 279.112305,22.8652344 C279.112305,23.5592483 278.8654,24.1398089 278.371582,24.6069336 C277.877764,25.0740583 277.283858,25.3076172 276.589844,25.3076172 L276.589844,25.3076172 Z M305.097656,79.5605469 C302.214829,79.5605469 299.59897,79.0467174 297.25,78.019043 C294.90103,76.9913686 292.885751,75.5166112 291.204102,73.5947266 C289.522453,71.672842 288.221196,69.3505996 287.300293,66.6279297 C286.37939,63.9052598 285.918945,60.8489753 285.918945,57.4589844 C285.918945,54.0689935 286.37939,51.0060358 287.300293,48.2700195 C288.221196,45.5340032 289.522453,43.2050877 291.204102,41.2832031 C292.885751,39.3613185 294.907703,37.8865611 297.27002,36.8588867 C299.632336,35.8312123 302.241522,35.3173828 305.097656,35.3173828 C307.980483,35.3173828 310.603016,35.8312123 312.965332,36.8588867 C315.327649,37.8865611 317.349601,39.3613185 319.03125,41.2832031 C320.712899,43.2050877 322.014156,45.5340032 322.935059,48.2700195 C323.855962,51.0060358 324.316406,54.0689935 324.316406,57.4589844 C324.316406,60.8489753 323.855962,63.9052598 322.935059,66.6279297 C322.014156,69.3505996 320.712899,71.672842 319.03125,73.5947266 C317.349601,75.5166112 315.327649,76.9913686 312.965332,78.019043 C310.603016,79.0467174 307.980483,79.5605469 305.097656,79.5605469 L305.097656,79.5605469 Z M305.097656,76.7578125 C307.526705,76.7578125 309.728831,76.3107141 311.704102,75.4165039 C313.679372,74.5222937 315.367669,73.2343834 316.769043,71.5527344 C318.170417,69.8710853 319.251461,67.8424598 320.012207,65.4667969 C320.772953,63.091134 321.15332,60.4218898 321.15332,57.4589844 C321.15332,54.4693861 320.772953,51.7867957 320.012207,49.4111328 C319.251461,47.0354699 318.170417,45.0135175 316.769043,43.3452148 C315.367669,41.6769122 313.679372,40.395675 311.704102,39.5014648 C309.728831,38.6072546 307.526705,38.1601562 305.097656,38.1601562 C302.668608,38.1601562 300.466481,38.6072546 298.491211,39.5014648 C296.515941,40.395675 294.827644,41.6769122 293.42627,43.3452148 C292.024895,45.0135175 290.943851,47.0354699 290.183105,49.4111328 C289.422359,51.7867957 289.041992,54.4693861 289.041992,57.4589844 C289.041992,60.4218898 289.422359,63.0978071 290.183105,65.4868164 C290.943851,67.8758257 292.024895,69.9044513 293.42627,71.5727539 C294.827644,73.2410565 296.515941,74.5222937 298.491211,75.4165039 C300.466481,76.3107141 302.668608,76.7578125 305.097656,76.7578125 L305.097656,76.7578125 Z M331.683594,35.8779297 L334.606445,35.8779297 L334.606445,45.3671875 L334.726562,45.3671875 C335.233726,43.8456955 335.954422,42.4710348 336.888672,41.2431641 C337.822921,40.0152933 338.937331,38.9609419 340.231934,38.0800781 C341.526536,37.1992143 342.974601,36.5185571 344.576172,36.0380859 C346.177742,35.5576148 347.899405,35.3173828 349.741211,35.3173828 C352.116874,35.3173828 354.278962,35.691077 356.227539,36.4384766 C358.176117,37.1858761 359.851067,38.2469007 361.252441,39.621582 C362.653816,40.9962634 363.734859,42.6578679 364.495605,44.6064453 C365.256351,46.5550228 365.636719,48.743803 365.636719,51.1728516 L365.636719,79 L362.513672,79 L362.513672,51.5332031 C362.513672,49.4511615 362.193363,47.5826906 361.552734,45.9277344 C360.912106,44.2727782 359.99789,42.871425 358.810059,41.7236328 C357.622227,40.5758406 356.200855,39.69499 354.545898,39.0810547 C352.890942,38.4671193 351.06251,38.1601562 349.060547,38.1601562 C346.951812,38.1601562 345.023283,38.5271773 343.274902,39.2612305 C341.526521,39.9952836 340.025071,41.0362888 338.770508,42.3842773 C337.515944,43.7322659 336.54167,45.3338123 335.847656,47.1889648 C335.153642,49.0441173 334.806641,51.0927622 334.806641,53.3349609 L334.806641,79 L331.683594,79 L331.683594,35.8779297 Z M425.214844,79 L391.541992,79 L391.541992,21.2236328 L425.214844,21.2236328 L425.214844,24.1464844 L394.705078,24.1464844 L394.705078,47.9296875 L423.773438,47.9296875 L423.773438,50.8125 L394.705078,50.8125 L394.705078,76.0771484 L425.214844,76.0771484 L425.214844,79 Z M467.776367,79 L434.303711,79 L434.303711,21.2236328 L437.466797,21.2236328 L437.466797,76.0771484 L467.776367,76.0771484 L467.776367,79 Z M475.303711,79 L475.303711,21.2236328 L494.762695,21.2236328 C497.271822,21.2236328 499.560699,21.5639614 501.629395,22.2446289 C503.69809,22.9252964 505.473137,23.8795512 506.95459,25.1074219 C508.436043,26.3352926 509.583818,27.8167231 510.397949,29.5517578 C511.212081,31.2867925 511.619141,33.1953021 511.619141,35.2773438 C511.619141,37.0123785 511.352216,38.6272712 510.818359,40.1220703 C510.284503,41.6168695 509.517095,42.9514915 508.516113,44.1259766 C507.515132,45.3004616 506.313972,46.294755 504.912598,47.1088867 C503.511223,47.9230184 501.956389,48.4902328 500.248047,48.8105469 L500.248047,49.0507812 C502.276703,49.264324 504.171866,49.751461 505.933594,50.512207 C507.695321,51.272953 509.223464,52.2739196 510.518066,53.5151367 C511.812669,54.7563539 512.826982,56.2244381 513.561035,57.9194336 C514.295088,59.614429 514.662109,61.5029193 514.662109,63.5849609 C514.662109,65.9606239 514.215011,68.0960192 513.320801,69.9912109 C512.426591,71.8864027 511.13868,73.5012954 509.457031,74.8359375 C507.775382,76.1705796 505.73341,77.1982386 503.331055,77.9189453 C500.928699,78.639652 498.219416,79 495.203125,79 L475.303711,79 Z M478.466797,47.8496094 L493.521484,47.8496094 C495.790376,47.8496094 497.839021,47.5626656 499.66748,46.9887695 C501.49594,46.4148734 503.057448,45.5940809 504.352051,44.5263672 C505.646654,43.4586535 506.64762,42.1640701 507.35498,40.6425781 C508.062341,39.1210861 508.416016,37.4127699 508.416016,35.5175781 C508.416016,33.7825434 508.08236,32.2076894 507.415039,30.7929688 C506.747718,29.3782481 505.800136,28.1770883 504.572266,27.1894531 C503.344395,26.201818 501.862964,25.4410834 500.12793,24.9072266 C498.392895,24.3733697 496.444347,24.1064453 494.282227,24.1064453 L478.466797,24.1064453 L478.466797,47.8496094 Z M494.882812,76.1171875 C497.472018,76.1171875 499.794261,75.8235706 501.849609,75.2363281 C503.904958,74.6490856 505.64664,73.8082737 507.074707,72.7138672 C508.502774,71.6194607 509.590491,70.2981848 510.337891,68.75 C511.08529,67.2018152 511.458984,65.4534603 511.458984,63.5048828 C511.458984,61.5029197 511.065271,59.7145261 510.277832,58.1396484 C509.490393,56.5647708 508.349291,55.2234756 506.854492,54.1157227 C505.359693,53.0079697 503.537934,52.1604847 501.38916,51.5732422 C499.240386,50.9859997 496.791355,50.6923828 494.041992,50.6923828 L478.466797,50.6923828 L478.466797,76.1171875 L494.882812,76.1171875 Z" id="Application-Copy" sketch:type="MSShapeGroup"></path>
        </g>
    </g>
</svg>