<?xml version="1.0" encoding="UTF-8" standalone="no"?>
<svg width="514px" height="283px" viewBox="0 0 514 283" version="1.1" xmlns="http://www.w3.org/2000/svg" xmlns:xlink="http://www.w3.org/1999/xlink" xmlns:sketch="http://www.bohemiancoding.com/sketch/ns">
    <!-- Generator: Sketch 3.3.1 (12002) - http://www.bohemiancoding.com/sketch -->
    <title>RancherELBv4</title>
    <desc>Created with Sketch.</desc>
    <defs></defs>
    <g id="Page-1" stroke="none" stroke-width="1" fill="none" fill-rule="evenodd" sketch:type="MSPage">
        <g id="AWS" sketch:type="MSLayerGroup" transform="translate(0.000000, 90.000000)">
            <g id="g10" transform="translate(257.000000, 96.278670) scale(1, -1) translate(-257.000000, -96.278670) " sketch:type="MSShapeGroup">
                <g id="g12">
                    <path d="M142.864306,126.158257 L112.991379,136.118119 L112.991379,179.277523 L142.900862,170.424312 L142.864306,126.158257" id="path14" fill="#F68D11"></path>
                    <path d="M150.655172,170.424312 L180.564655,179.277523 L180.460526,136.147999 L150.655172,126.158257 L150.655172,170.424312" id="path16" fill="#F68D11"></path>
                    <path d="M174.471983,183.950912 L146.596345,192.557339 L119.084052,183.950912 L146.636224,176.572867 L174.471983,183.950912" id="path18" fill="#F68D11"></path>
                    <path d="M218.191892,126.158257 L188.318966,136.118119 L188.318966,179.277523 L218.228448,170.424312 L218.191892,126.158257" id="path20" fill="#F68D11"></path>
                    <path d="M225.982759,170.424312 L255.892241,179.277523 L255.788112,136.147999 L225.982759,126.158257 L225.982759,170.424312" id="path22" fill="#F68D11"></path>
                    <path d="M249.799569,183.950912 L221.923931,192.557339 L194.411638,183.950912 L221.96381,176.572867 L249.799569,183.950912" id="path24" fill="#F68D11"></path>
                    <path d="M29.9094828,107.345183 L0,116.198394 L0,73.0389908 L29.8731483,63.0791284 L29.9094828,107.345183" id="path26" fill="#F68D11"></path>
                    <path d="M37.6637931,107.345183 L67.5732759,116.198394 L67.4694789,73.0679851 L37.6637931,63.0791284 L37.6637931,107.345183" id="path28" fill="#F68D11"></path>
                    <path d="M61.4806034,120.871783 L33.6048547,129.478211 L6.09267241,120.871783 L33.6451772,113.493739 L61.4806034,120.871783" id="path30" fill="#F68D11"></path>
                    <path d="M105.200734,63.0791284 L75.3275862,73.0389908 L75.3275862,116.198394 L105.237069,107.345183 L105.200734,63.0791284" id="path32" fill="#F68D11"></path>
                    <path d="M112.991379,107.345183 L142.900862,116.198394 L142.796733,73.0679851 L112.991379,63.0791284 L112.991379,107.345183" id="path34" fill="#F68D11"></path>
                    <path d="M136.80819,120.871783 L108.932441,129.478211 L81.4202586,120.871783 L108.972763,113.493739 L136.80819,120.871783" id="path36" fill="#F68D11"></path>
                    <path d="M67.5369414,0 L37.6637931,9.95986239 L37.6637931,53.1192661 L67.5732759,44.266055 L67.5369414,0" id="path38" fill="#F68D11"></path>
                    <path d="M75.3275862,44.266055 L105.237069,53.1192661 L105.133272,9.98882345 L75.3275862,0 L75.3275862,44.266055" id="path40" fill="#F68D11"></path>
                    <path d="M99.1443966,57.7926548 L71.2686478,66.3990826 L43.7564655,57.7926548 L71.3089703,50.4144994 L99.1443966,57.7926548" id="path42" fill="#F68D11"></path>
                    <path d="M199.828578,38.1518062 L197.630784,38.1440596 C196.824336,38.1440596 195.796336,37.5998085 195.543767,36.7174753 L188.876168,13.2508222 L182.281681,36.6664587 C182.083392,37.4005006 181.391043,38.1440596 180.449448,38.1440596 L177.847323,38.1440596 C176.910159,38.1440596 176.226672,37.3905407 176.037246,36.6512976 L169.902478,13.4791244 L163.563884,36.7231193 C163.31353,37.5730275 162.260052,38.1440596 161.433664,38.1440596 L158.271013,38.1495929 C157.59528,38.1495929 156.967181,37.8595396 156.630422,37.392754 C156.402224,37.0762517 156.339082,36.7174753 156.444319,36.4053997 L166.236905,1.77193698 C166.452918,1.04353794 167.084341,0.309948704 168.008211,0.309948704 L171.153138,0.309948704 C172.002789,0.309948704 172.747203,0.928550224 172.962108,1.80608825 L178.989422,24.8763056 L185.548461,1.77971674 C185.745642,1.07250122 186.380388,0.309948704 187.30869,0.309948704 L190.402659,0.309948704 C191.263388,0.309948704 191.987862,0.90736781 192.200552,1.78274897 L201.62647,36.3911239 C201.737246,36.7244472 201.672996,37.0948435 201.448121,37.4070298 C201.116901,37.8665115 200.496556,38.1518062 199.828578,38.1518062" id="path44" fill="#100F0D"></path>
                    <path d="M227.021836,23.4476187 L210.407672,23.4476187 C210.789849,28.1055143 213.817353,32.9349409 218.946276,33.1208584 C224.404203,32.9427982 226.901091,28.223926 227.021836,23.4476187 L227.021836,23.4476187 Z M218.934091,38.3994748 C207.711388,38.3994748 202.60019,28.4876411 202.60019,19.2790843 C202.60019,7.78633268 208.954293,0.360958693 218.787866,0.360958693 C225.825457,0.360958693 231.190332,3.91305287 233.507763,10.1193751 C233.631832,10.4742782 233.59306,10.8594482 233.399203,11.2048452 C233.16325,11.6241554 232.715716,11.940547 232.186207,12.0568561 L229.07119,12.6521239 C228.234832,12.7831514 227.276621,12.2881462 226.959802,11.5701508 C225.446603,8.12178085 222.688284,6.16525442 219.226539,6.06324329 C215.895509,6.16612867 212.836987,8.14296216 211.435672,11.0963933 C210.296897,13.5088933 210.128517,15.8869765 210.109685,18.3051204 L232.664759,18.312867 C233.137772,18.312867 233.627401,18.5208068 233.973022,18.8706193 C234.262147,19.1606726 234.419448,19.5211089 234.416125,19.8820986 C234.360737,28.8347976 230.265353,38.3994748 218.934091,38.3994748 L218.934091,38.3994748 Z" id="path46" fill="#100F0D"></path>
                    <path d="M262.164371,19.2237517 C262.164371,17.1034077 261.779978,6.51584157 254.250543,6.24480052 C251.727069,6.34120092 249.177009,7.82307351 247.752431,10.0139002 C246.703384,11.6708561 246.090793,13.9615138 245.933491,16.7956479 L245.933491,23.0248779 C246.056453,27.7968693 249.4185,33.0335436 254.226172,33.2362821 C261.781086,32.9384822 262.164371,21.5123068 262.164371,19.2237517 L262.164371,19.2237517 Z M255.431414,38.7207357 L254.834332,38.7207357 C251.10894,38.7207357 248.181134,37.1748544 245.933491,34.0061795 L245.930168,48.6062311 C245.930168,49.4262597 245.082733,50.1732494 244.146677,50.1732494 L240.903159,50.1732494 C240.055724,50.1732494 239.107483,49.5027294 239.105267,48.6062311 L239.105267,3.02988974 C239.108591,2.20205917 239.956026,1.44989037 240.890974,1.44989037 L241.843647,1.4550695 C242.743147,1.4550695 243.383431,2.17915149 243.599444,2.85178526 L244.614151,6.06885401 C246.971461,2.72469742 250.521828,0.76039012 254.32144,0.76039012 L254.903013,0.76039012 C264.911612,0.76039012 269.391388,10.4855218 269.391388,20.1233486 C269.391388,24.920793 268.207194,29.507863 266.14344,32.7080774 C263.758435,36.4165768 259.653082,38.7207357 255.431414,38.7207357 L255.431414,38.7207357 Z" id="path48" fill="#100F0D"></path>
                    <path d="M304.907237,20.2495069 C302.798065,21.763406 300.262405,22.2691456 297.722315,22.7758813 L292.8515,23.6780235 C289.356522,24.2520436 287.333754,25.1883813 287.333754,28.2692987 C287.333754,31.5261737 290.712418,32.7711565 293.577082,32.8485115 C297.075384,32.7603114 299.70631,31.2010396 300.983556,28.4586468 C301.287082,27.8123624 301.959491,27.3775591 302.658487,27.3775591 C302.778125,27.3775591 302.899978,27.3909495 303.015185,27.4159599 L306.054875,28.0869226 C306.551151,28.1962597 307.014194,28.5360017 307.262332,28.9778876 C307.460621,29.3284748 307.503823,29.7113761 307.385293,30.0533314 C305.525366,35.4659633 300.802991,38.3264358 293.659056,38.3264358 C287.204147,38.31216 280.306134,35.4448263 280.306134,27.4363222 C280.306134,21.9627139 283.749047,18.4867219 290.546254,17.1034077 L295.998642,16.0654794 C298.991806,15.4931193 302.052543,14.4751107 302.052543,11.2644937 C302.052543,6.51151456 296.515966,6.02692299 294.842142,5.99234014 C291.086841,6.07318102 286.835263,7.74655963 285.802832,11.2900573 C285.595681,12.0690292 284.614207,12.6201416 283.753478,12.4411961 L280.574211,11.7858372 C280.095659,11.6851319 279.658095,11.3742735 279.40331,10.9545538 C279.189513,10.6048299 279.128586,10.213186 279.227177,9.85568222 C280.867767,3.97616519 286.549461,0.430557104 294.425625,0.370900849 L294.600651,0.369603853 C301.634918,0.369603853 309.15106,3.37875052 309.15106,11.8200327 C309.15106,15.2561852 307.603522,18.3284708 304.907237,20.2495069" id="path50" fill="#100F0D"></path>
                    <path d="M337.063254,23.4134232 L320.444659,23.4134232 C320.824621,28.0756347 323.852125,32.9072747 328.981047,33.0845602 C334.436759,32.9115906 336.93697,28.1932718 337.063254,23.4134232 L337.063254,23.4134232 Z M328.972185,38.3674925 C317.747267,38.3674925 312.634961,28.4552162 312.634961,19.2471021 C312.634961,7.75520258 318.990172,0.330698417 328.824853,0.330698417 C335.863552,0.330698417 341.228427,3.88321755 343.548073,10.0882561 C343.671034,10.4435908 343.632263,10.829624 343.437297,11.1758509 C343.201345,11.5956038 342.752703,11.9121061 342.224302,12.0262018 L339.104853,12.6214696 C338.374841,12.7398813 337.35681,12.3625132 336.997897,11.5381686 C335.483591,8.09195659 332.724164,6.13543016 329.265741,6.02909203 C325.931388,6.13543016 322.873974,8.11184312 321.478198,11.0643558 C320.337207,13.4712672 320.16772,15.851453 320.151103,18.2753515 L342.703961,18.2808847 C343.173651,18.2808847 343.659957,18.4876072 344.005578,18.8350958 C344.29581,19.1264771 344.453112,19.4870241 344.449789,19.8501164 C344.397724,28.80193 340.305664,38.3674925 328.972185,38.3674925 L328.972185,38.3674925 Z" id="path52" fill="#100F0D"></path>
                    <path d="M365.747556,37.9460797 C365.307776,37.9944404 364.884612,38.0177907 364.473634,38.0177907 C360.688422,38.0177907 357.614392,35.9618538 355.480849,32.0341267 L355.488603,35.4738205 C355.48528,36.306797 354.653353,37.0386256 353.708435,37.0386256 L350.891405,37.0386256 C349.967534,37.0386256 349.152224,36.3038091 349.145578,35.46043 L349.141147,2.04730505 C349.141147,1.20867357 349.956457,0.472488125 350.886974,0.472488125 L354.173694,0.47378512 C355.028884,0.47378512 355.991526,1.14425539 355.99928,2.04730505 L356.001496,18.8926416 C356.001496,21.6704472 356.260711,23.763125 357.588914,26.2389255 C359.486504,29.7654914 362.136263,31.4955195 365.689953,31.5231858 C366.580591,31.5296044 367.362668,32.3064736 367.362668,33.1861508 L367.362668,36.3115556 C367.362668,37.1294817 366.652595,37.8474771 365.747556,37.9460797" id="path54" fill="#100F0D"></path>
                    <path d="M400.255345,38.6022133 L397.659866,38.600996 C396.846772,38.600996 395.804371,38.0177907 395.551802,37.1623492 L387.138375,10.7457619 L378.546599,37.1359002 C378.292922,38.0121468 377.248306,38.600996 376.43078,38.600996 L372.72422,38.6044266 C372.044056,38.6044266 371.386047,38.3014255 371.049289,37.8332013 C370.823306,37.5197976 370.761272,37.1644518 370.873155,36.8328991 L382.632013,1.9854875 C382.857996,1.29598836 383.457293,0.490212253 384.405534,0.490212253 L388.890849,0.490212253 C389.713914,0.490212253 390.388539,1.05002181 390.697603,1.98851972 L402.103086,36.8216112 C402.217185,37.1523893 402.156259,37.5089524 401.931384,37.8232414 C401.592409,38.2957815 400.935509,38.6022133 400.255345,38.6022133" id="path56" fill="#100F0D"></path>
                    <path d="M408.782871,51.9970109 C406.392328,51.9970109 404.448211,50.0496365 404.448211,47.6534042 C404.448211,45.2577253 406.392328,43.3111256 408.782871,43.3111256 C411.174522,43.3111256 413.120853,45.2577253 413.120853,47.6534042 C413.120853,50.0496365 411.174522,51.9970109 408.782871,51.9970109" id="path58" fill="#100F0D"></path>
                    <path d="M410.56747,38.814469 L407.008241,38.8180103 C406.04006,38.8180103 405.158284,38.0354971 405.158284,37.1778423 L405.14056,1.69975011 C405.14056,1.27049111 405.362112,0.844254375 405.745397,0.527820694 C406.096556,0.240351399 406.545198,0.0743531393 406.996056,0.0743531393 L410.580763,0.068733453 L410.582978,0.068733453 C411.56556,0.0773791669 412.428504,0.838634799 412.428504,1.69758108 L412.428504,37.1778423 C412.428504,38.0497729 411.557806,38.814469 410.56747,38.814469" id="path60" fill="#100F0D"></path>
                    <path d="M443.830138,14.7560894 L440.858022,14.7448016 C440.02831,14.7448016 439.332638,14.2468085 439.023573,13.3818498 C437.93797,8.70277282 435.478746,6.27808859 431.75003,6.1708762 C424.487565,6.38658469 423.923716,16.4990654 423.923716,19.5933733 C423.923716,25.76384 426.062797,32.422672 432.034724,32.5986296 C435.639371,32.4879644 438.261435,29.9059255 439.047944,25.6985476 C439.196384,24.8400075 439.856608,24.1902924 440.758323,24.077414 L443.938698,24.0463171 C444.889155,24.1492357 445.634677,24.8676737 445.62803,25.7586388 C444.502547,33.3621084 439.228509,38.2767471 432.179841,38.2767471 L431.936134,38.2702179 L431.660302,38.2767471 C421.409103,38.2767471 416.819659,28.7189312 416.819659,19.2471021 C416.819659,10.5628989 420.68906,0.422775132 431.602698,0.422775132 L432.12556,0.422775132 C438.998095,0.422775132 444.185728,5.23541273 445.671233,13.0385665 C445.704466,13.4104014 445.575966,13.7821256 445.312319,14.0843521 C444.971129,14.475996 444.42722,14.7270952 443.830138,14.7560894" id="path62" fill="#100F0D"></path>
                    <path d="M473.183526,23.4134232 L456.562716,23.4134232 C456.942677,28.0769627 459.971289,32.9072747 465.103534,33.0845602 C470.560353,32.9115906 473.059457,28.1932718 473.183526,23.4134232 L473.183526,23.4134232 Z M465.092457,38.3674925 C453.868647,38.3674925 448.757448,28.4552162 448.757448,19.2471021 C448.757448,7.75520258 455.112659,0.330698417 464.947341,0.330698417 C471.982716,0.330698417 477.345375,3.88105958 479.667237,10.0869502 C479.787983,10.444454 479.748103,10.8317819 479.554246,11.1758509 C479.31497,11.5987024 478.879621,11.9077901 478.342358,12.0262018 L475.227341,12.6214696 C474.494004,12.7398813 473.479297,12.3625132 473.120384,11.5381686 C471.601647,8.09195659 468.841112,6.13543016 465.383797,6.02779725 C462.050552,6.13543016 458.994246,8.11184312 457.59847,11.0643558 C456.456371,13.4748085 456.286884,15.8549943 456.269159,18.2753515 L478.824233,18.2787821 C479.298353,18.2787821 479.787983,18.4876072 480.134711,18.8385264 C480.422728,19.1316783 480.577815,19.492668 480.572276,19.8501164 C480.520211,28.80193 476.427043,38.3674925 465.092457,38.3674925 L465.092457,38.3674925 Z" id="path64" fill="#100F0D"></path>
                    <path d="M508.827875,20.2495069 C506.715379,21.7647339 504.176397,22.270031 501.640737,22.7758813 L496.769922,23.6780235 C493.278267,24.2520436 491.256608,25.1883813 491.256608,28.2692987 C491.256608,32.470258 496.475259,32.8212878 497.493289,32.8485115 C500.994914,32.7603114 503.625841,31.2010396 504.900871,28.4573188 C505.206612,27.8111451 505.881237,27.3775591 506.581341,27.3775591 C506.702086,27.3775591 506.822832,27.3909495 506.940254,27.4159599 L509.977728,28.0869226 C510.474004,28.1962597 510.93594,28.5373297 511.184078,28.9786623 C511.381259,29.3296921 511.424461,29.7113761 511.305931,30.0533314 C509.44822,35.4659633 504.724737,38.3264358 497.577478,38.3264358 C491.124784,38.31216 484.228987,35.4448263 484.228987,27.4363222 C484.228987,21.9613859 487.670793,18.4853939 494.466892,17.1034077 L499.921496,16.0654794 C502.914659,15.4931193 505.975397,14.4751107 505.975397,11.2644937 C505.975397,6.51151456 500.438819,6.02692299 498.764996,5.99234014 C495.28331,6.06669604 490.826797,7.50318486 489.726793,11.2856307 C489.525181,12.0690292 488.544815,12.6192563 487.668578,12.4411961 L484.494849,11.7858372 C484.014082,11.6838039 483.575409,11.3708429 483.320625,10.9502268 C483.109043,10.5996507 483.048116,10.2110169 483.147815,9.85568222 C484.783974,3.97616519 490.46456,0.430557104 498.341832,0.370900849 L498.516858,0.369603853 C505.552233,0.369603853 513.069483,3.37875052 513.069483,11.8200327 C513.069483,15.2583985 511.523052,18.3314587 508.827875,20.2495069" id="path66" fill="#100F0D"></path>
                    <path d="M364.136875,107.12164 L364.136875,115.178062 C364.141306,116.399805 365.069608,117.219834 366.184013,117.218727 L402.31356,117.219834 C403.466737,117.219834 404.397254,116.379885 404.397254,115.186915 L404.397254,108.278091 C404.386177,107.12164 403.408026,105.609511 401.675491,103.208189 L382.962125,76.5149828 C389.905556,76.6796525 397.256642,75.6409495 403.566435,72.0970092 C404.992121,71.2982282 405.370974,70.1128939 405.487289,68.9556686 L405.487289,60.3592007 C405.487289,59.1738664 404.188996,57.8039427 402.826453,58.5176221 C391.705664,64.338387 376.946996,64.9738263 364.647552,58.4502271 C363.392461,57.7805923 362.076444,59.129379 362.076444,60.3147133 L362.076444,68.4831284 C362.076444,69.7864318 362.10303,72.0252982 363.420155,74.0193733 L385.10453,105.092152 L366.227216,105.096468 C365.071823,105.096468 364.147953,105.917825 364.136875,107.12164" id="path68" fill="#100F0D"></path>
                    <path d="M232.346832,56.8222322 L221.352328,56.8222322 C220.307711,56.8905126 219.471353,57.6776737 219.388272,58.6815172 L219.396026,115.040837 C219.396026,116.168515 220.346483,117.069329 221.516276,117.069329 L231.753073,117.074862 C232.825384,117.015103 233.682789,116.207248 233.755901,115.182489 L233.755901,107.818498 L233.959728,107.818498 C236.624996,114.937919 241.653112,118.253446 248.423733,118.253446 C255.297375,118.253446 259.607664,114.937919 262.686125,107.818498 C265.355823,114.937919 271.407509,118.253446 277.876819,118.253446 C282.493957,118.253446 287.515427,116.358859 290.593888,112.091611 C294.08222,107.345183 293.363284,100.470997 293.363284,94.4198274 L293.356638,58.8527162 C293.356638,57.7282477 292.407289,56.8222322 291.238603,56.8222322 L280.260716,56.8222322 C279.155172,56.8905126 278.285582,57.7715178 278.285582,58.8475149 L278.285582,88.7279874 C278.285582,91.0985453 278.488302,97.0308607 277.976517,99.2822322 C277.153453,103.080702 274.689797,104.141981 271.513853,104.141981 C268.843047,104.141981 266.071435,102.363039 264.942629,99.5229289 C263.814931,96.6720843 263.91906,91.9285338 263.91906,88.7279874 L263.91906,58.8527162 C263.91906,57.7282477 262.969711,56.8222322 261.79881,56.8222322 L250.818707,56.8222322 C249.718703,56.8905126 248.846897,57.7715178 248.846897,58.8475149 L248.832496,88.7279874 C248.832496,95.0142099 249.861603,104.260835 242.065198,104.260835 C234.164664,104.260835 234.472621,95.2498159 234.472621,88.7279874 L234.465974,58.8527162 C234.470405,57.7282477 233.519948,56.8222322 232.346832,56.8222322" id="path70" fill="#100F0D"></path>
                    <path d="M435.602815,106.753789 C427.492914,106.753789 426.982237,95.725344 426.982237,88.8441858 C426.982237,81.9670115 426.880323,67.2623813 435.503116,67.2623813 C444.020672,67.2623813 444.429435,79.1221428 444.429435,86.3555482 C444.429435,91.0985453 444.226716,96.7896107 442.789953,101.29667 C441.554802,105.211892 439.09447,106.753789 435.602815,106.753789 L435.602815,106.753789 Z M435.503116,118.253446 C451.81597,118.253446 460.641483,104.260835 460.641483,86.4779438 C460.641483,69.2777041 450.889884,55.6382259 435.503116,55.6382259 C419.494897,55.6382259 410.771297,69.6347099 410.771297,87.0680103 C410.771297,104.619612 419.593487,118.253446 435.503116,118.253446 L435.503116,118.253446 Z" id="path72" fill="#100F0D"></path>
                    <path d="M481.799672,56.8222322 L470.847263,56.8222322 C469.743935,56.8905126 468.874345,57.7715178 468.874345,58.8475149 L468.858836,115.232288 C468.949672,116.25926 469.862466,117.069329 470.965793,117.069329 L481.164927,117.074862 C482.126461,117.021743 482.915185,116.368819 483.116797,115.495671 L483.116797,106.871869 L483.325056,106.871869 C486.399086,114.581577 490.711591,118.253446 498.300845,118.253446 C503.227047,118.253446 508.052444,116.479484 511.12869,111.615751 C514,107.110905 514,99.5229289 514,94.066695 L514,58.5994037 C513.877039,57.5998761 512.985293,56.8222322 511.89969,56.8222322 L500.875276,56.8222322 C499.858353,56.88841 499.040828,57.6388303 498.917866,58.5994037 L498.917866,89.2021875 C498.917866,95.3686703 499.637909,104.384006 492.042009,104.384006 C489.375634,104.384006 486.916409,102.600858 485.683474,99.8766147 C484.142582,96.4385808 483.938754,92.9997724 483.938754,89.2021875 L483.938754,58.8527162 C483.919922,57.7282477 482.969466,56.8222322 481.799672,56.8222322" id="path74" fill="#100F0D"></path>
                    <path d="M346.417168,56.9648796 C345.688263,56.3151646 344.644754,56.2718945 343.822797,56.7093538 C340.172733,59.7405826 339.51694,61.1459192 337.521866,64.0288567 C331.487905,57.8891548 327.21528,56.0475763 319.402259,56.0475763 C310.14472,56.0475763 302.94872,61.7533601 302.94872,73.1630464 C302.94872,82.074578 307.779655,88.1365929 314.668806,91.1098331 C320.632978,93.7251823 328.963323,94.2014851 335.337366,94.9169352 L335.337366,96.3413062 C335.337366,98.9545528 335.542302,102.046205 333.998086,104.30322 C332.665453,106.323744 330.094345,107.153733 327.828978,107.153733 C323.636112,107.153733 319.91072,105.006497 318.993496,100.558312 C318.807392,99.5705149 318.080703,98.5892471 317.084828,98.5416611 L306.433728,99.6945705 C305.532013,99.8968664 304.533922,100.615415 304.794246,101.986999 C307.242392,114.901399 318.913737,118.803452 329.374302,118.803452 C334.718129,118.803452 341.713625,117.378085 345.929754,113.337701 C351.27469,108.343715 350.759582,101.688756 350.759582,94.4379765 L350.759582,77.3306955 C350.759582,72.1847666 352.900879,69.9260912 354.913677,67.1526015 C355.610457,66.1522993 355.767759,64.966965 354.87269,64.2333658 C352.628371,62.3541611 348.639332,58.8958756 346.447078,56.9406439 L346.417168,56.9648796 L346.417168,56.9648796 Z M335.337366,83.7415269 C335.337366,79.4618847 335.43928,75.8929341 333.279151,72.0926932 C331.531108,68.9997133 328.752849,67.0998142 325.667741,67.0998142 C321.456043,67.0998142 318.989065,70.3077752 318.989065,75.0642735 C318.989065,84.4145923 327.388091,86.1169541 335.337366,86.1169541 L335.337366,83.7415269 L335.337366,83.7415269 Z" id="path76" fill="#100F0D"></path>
                    <path d="M202.326573,56.9648796 C201.599884,56.3151646 200.548621,56.2718945 199.726664,56.7093538 C196.076599,59.7405826 195.423022,61.1459192 193.425733,64.0288567 C187.395095,57.8891548 183.120254,56.0475763 175.302802,56.0475763 C166.048586,56.0475763 158.850371,61.7533601 158.850371,73.1630464 C158.850371,82.074578 163.685737,88.1365929 170.574888,91.1098331 C176.540168,93.7251823 184.869405,94.2014851 191.243448,94.9169352 L191.243448,96.3413062 C191.243448,98.9545528 191.450599,102.046205 189.906384,104.30322 C188.570427,106.323744 185.997103,107.153733 183.738384,107.153733 C179.545517,107.153733 175.815694,105.006497 174.901793,100.558312 C174.711259,99.5705149 173.987892,98.5892471 172.993125,98.5416611 L162.337595,99.6945705 C161.438095,99.8968664 160.438897,100.615415 160.697004,101.986999 C163.145151,114.901399 174.817603,118.803452 185.27706,118.803452 C190.627534,118.803452 197.617491,117.378085 201.834728,113.337701 C207.181879,108.343715 206.665664,101.688756 206.665664,94.4379765 L206.665664,77.3306955 C206.665664,72.1847666 208.808069,69.9260912 210.815328,67.1526015 C211.515431,66.1522993 211.673841,64.966965 210.780987,64.2333658 C208.534453,62.3541611 204.543198,58.8958756 202.352052,56.9406439 L202.326573,56.9648796 L202.326573,56.9648796 Z M191.243448,83.7415269 C191.243448,79.4618847 191.344254,75.8929341 189.188556,72.0926932 C187.441621,68.9997133 184.661147,67.0998142 181.58047,67.0998142 C177.359909,67.0998142 174.894039,70.3077752 174.894039,75.0642735 C174.894039,84.4145923 183.290849,86.1169541 191.243448,86.1169541 L191.243448,83.7415269 L191.243448,83.7415269 Z" id="path78" fill="#100F0D"></path>
                </g>
            </g>
        </g>
        <g id="Name" sketch:type="MSLayerGroup" fill="#F68D11">
            <path d="M34.1674805,40.8754883 L13.1469727,40.8754883 L7.83691406,56 L0.915527344,56 L20.3979492,3.15576172 L26.9165039,3.15576172 L46.3989258,56 L39.4775391,56 L34.1674805,40.8754883 Z M15.0878906,35.2724609 L32.2265625,35.2724609 L23.7670898,11.1757812 L23.5473633,11.1757812 L15.0878906,35.2724609 Z M70.6054688,16.15625 C73.1201298,16.15625 75.4150287,16.6384229 77.4902344,17.6027832 C79.5654401,18.5671435 81.3476488,19.9282139 82.8369141,21.6860352 C84.3261793,23.4438564 85.4797322,25.5617552 86.2976074,28.0397949 C87.1154826,30.5178347 87.5244141,33.2582858 87.5244141,36.2612305 C87.5244141,39.2641752 87.1154826,42.0046263 86.2976074,44.482666 C85.4797322,46.9607057 84.3383862,49.0786045 82.8735352,50.8364258 C81.4086841,52.5942471 79.6447857,53.9553174 77.5817871,54.9196777 C75.5187885,55.884038 73.2422,56.3662109 70.7519531,56.3662109 C67.9443219,56.3662109 65.4541124,55.7802793 63.28125,54.6083984 C61.1083876,53.4365176 59.3994203,51.764171 58.1542969,49.5913086 L58.0078125,49.5913086 L58.0078125,69.1835938 L51.6357422,69.1835938 L51.6357422,16.5224609 L57.6782227,16.5224609 L57.6782227,22.9311523 L57.824707,22.9311523 C58.4106475,21.9057566 59.1491655,20.9780315 60.0402832,20.1479492 C60.9314009,19.3178669 61.9323675,18.6037628 63.0432129,18.0056152 C64.1540583,17.4074677 65.3503354,16.9497086 66.6320801,16.6323242 C67.9138248,16.3149398 69.2382744,16.15625 70.6054688,16.15625 L70.6054688,16.15625 Z M69.4335938,50.6899414 C71.1670009,50.6899414 72.7477956,50.3481479 74.1760254,49.6645508 C75.6042552,48.9809536 76.8249461,48.0105043 77.8381348,46.7531738 C78.8513234,45.4958433 79.6325656,43.9821866 80.1818848,42.2121582 C80.7312039,40.4421298 81.0058594,38.4585071 81.0058594,36.2612305 C81.0058594,34.088368 80.7312039,32.1108488 80.1818848,30.3286133 C79.6325656,28.5463778 78.8513234,27.0266176 77.8381348,25.7692871 C76.8249461,24.5119566 75.6042552,23.5415073 74.1760254,22.8579102 C72.7477956,22.174313 71.1670009,21.8325195 69.4335938,21.8325195 C67.7246008,21.8325195 66.1682199,22.1804164 64.7644043,22.8762207 C63.3605887,23.572025 62.1521047,24.5546812 61.138916,25.8242188 C60.1257274,27.0937563 59.3444852,28.6135165 58.795166,30.3835449 C58.2458469,32.1535733 57.9711914,34.1127822 57.9711914,36.2612305 C57.9711914,38.4096787 58.2458469,40.3688876 58.795166,42.138916 C59.3444852,43.9089444 60.1257274,45.4287046 61.138916,46.6982422 C62.1521047,47.9677798 63.3605887,48.950436 64.7644043,49.6462402 C66.1682199,50.3420445 67.7246008,50.6899414 69.4335938,50.6899414 L69.4335938,50.6899414 Z M113.195801,16.15625 C115.710462,16.15625 118.005361,16.6384229 120.080566,17.6027832 C122.155772,18.5671435 123.937981,19.9282139 125.427246,21.6860352 C126.916511,23.4438564 128.070064,25.5617552 128.887939,28.0397949 C129.705815,30.5178347 130.114746,33.2582858 130.114746,36.2612305 C130.114746,39.2641752 129.705815,42.0046263 128.887939,44.482666 C128.070064,46.9607057 126.928718,49.0786045 125.463867,50.8364258 C123.999016,52.5942471 122.235118,53.9553174 120.172119,54.9196777 C118.109121,55.884038 115.832532,56.3662109 113.342285,56.3662109 C110.534654,56.3662109 108.044444,55.7802793 105.871582,54.6083984 C103.69872,53.4365176 101.989752,51.764171 100.744629,49.5913086 L100.598145,49.5913086 L100.598145,69.1835938 L94.2260742,69.1835938 L94.2260742,16.5224609 L100.268555,16.5224609 L100.268555,22.9311523 L100.415039,22.9311523 C101.000979,21.9057566 101.739497,20.9780315 102.630615,20.1479492 C103.521733,19.3178669 104.5227,18.6037628 105.633545,18.0056152 C106.74439,17.4074677 107.940667,16.9497086 109.222412,16.6323242 C110.504157,16.3149398 111.828606,16.15625 113.195801,16.15625 L113.195801,16.15625 Z M112.023926,50.6899414 C113.757333,50.6899414 115.338128,50.3481479 116.766357,49.6645508 C118.194587,48.9809536 119.415278,48.0105043 120.428467,46.7531738 C121.441655,45.4958433 122.222898,43.9821866 122.772217,42.2121582 C123.321536,40.4421298 123.596191,38.4585071 123.596191,36.2612305 C123.596191,34.088368 123.321536,32.1108488 122.772217,30.3286133 C122.222898,28.5463778 121.441655,27.0266176 120.428467,25.7692871 C119.415278,24.5119566 118.194587,23.5415073 116.766357,22.8579102 C115.338128,22.174313 113.757333,21.8325195 112.023926,21.8325195 C110.314933,21.8325195 108.758552,22.1804164 107.354736,22.8762207 C105.950921,23.572025 104.742437,24.5546812 103.729248,25.8242188 C102.716059,27.0937563 101.934817,28.6135165 101.385498,30.3835449 C100.836179,32.1535733 100.561523,34.1127822 100.561523,36.2612305 C100.561523,38.4096787 100.836179,40.3688876 101.385498,42.138916 C101.934817,43.9089444 102.716059,45.4287046 103.729248,46.6982422 C104.742437,47.9677798 105.950921,48.950436 107.354736,49.6462402 C108.758552,50.3420445 110.314933,50.6899414 112.023926,50.6899414 L112.023926,50.6899414 Z M137.182617,0.848632812 L143.554688,0.848632812 L143.554688,56 L137.182617,56 L137.182617,0.848632812 Z M152.929688,16.5224609 L159.301758,16.5224609 L159.301758,56 L152.929688,56 L152.929688,16.5224609 Z M156.115723,10.1503906 C155.554196,10.1503906 155.029299,10.0466319 154.541016,9.83911133 C154.052732,9.63159076 153.62549,9.34472839 153.259277,8.97851562 C152.893065,8.61230286 152.606202,8.18506104 152.398682,7.69677734 C152.191161,7.20849365 152.087402,6.68359656 152.087402,6.12207031 C152.087402,5.56054407 152.191161,5.03564697 152.398682,4.54736328 C152.606202,4.05907959 152.893065,3.63183777 153.259277,3.265625 C153.62549,2.89941223 154.052732,2.61254987 154.541016,2.4050293 C155.029299,2.19750873 155.554196,2.09375 156.115723,2.09375 C156.677249,2.09375 157.202146,2.19750873 157.69043,2.4050293 C158.178713,2.61254987 158.605955,2.89941223 158.972168,3.265625 C159.338381,3.63183777 159.625243,4.05907959 159.832764,4.54736328 C160.040284,5.03564697 160.144043,5.56054407 160.144043,6.12207031 C160.144043,6.68359656 160.040284,7.20849365 159.832764,7.69677734 C159.625243,8.18506104 159.338381,8.61230286 158.972168,8.97851562 C158.605955,9.34472839 158.178713,9.63159076 157.69043,9.83911133 C157.202146,10.0466319 156.677249,10.1503906 156.115723,10.1503906 L156.115723,10.1503906 Z M194.677734,29.3764648 C194.482421,28.3266549 194.116214,27.3439987 193.579102,26.4284668 C193.04199,25.5129349 192.340092,24.7133823 191.473389,24.0297852 C190.606685,23.346188 189.587408,22.809084 188.415527,22.418457 C187.243646,22.0278301 185.913093,21.8325195 184.423828,21.8325195 C182.690421,21.8325195 181.11573,22.174313 179.699707,22.8579102 C178.283684,23.5415073 177.069097,24.5119566 176.055908,25.7692871 C175.04272,27.0266176 174.255374,28.5463778 173.693848,30.3286133 C173.132321,32.1108488 172.851562,34.088368 172.851562,36.2612305 C172.851562,38.5073354 173.132321,40.5214755 173.693848,42.3037109 C174.255374,44.0859464 175.048823,45.5996031 176.074219,46.8447266 C177.099615,48.08985 178.326409,49.0419889 179.754639,49.7011719 C181.182868,50.3603549 182.763663,50.6899414 184.49707,50.6899414 C187.255873,50.6899414 189.514151,50.067389 191.271973,48.8222656 C193.029794,47.5771422 194.18945,45.7583127 194.750977,43.3657227 L201.013184,43.3657227 C200.744628,45.2944432 200.152592,47.0522382 199.237061,48.6391602 C198.321529,50.2260822 197.143562,51.593256 195.703125,52.7407227 C194.262688,53.8881893 192.590342,54.7792937 190.686035,55.4140625 C188.781729,56.0488313 186.706554,56.3662109 184.460449,56.3662109 C181.750475,56.3662109 179.284679,55.9023484 177.062988,54.9746094 C174.841297,54.0468704 172.93702,52.7102138 171.350098,50.9645996 C169.763176,49.2189854 168.536381,47.1071901 167.669678,44.6291504 C166.802974,42.1511107 166.369629,39.3618319 166.369629,36.2612305 C166.369629,33.2338716 166.802974,30.4812136 167.669678,28.0031738 C168.536381,25.5251341 169.757072,23.4072354 171.331787,21.6494141 C172.906502,19.8915928 174.798573,18.5366259 177.008057,17.5844727 C179.21754,16.6323195 181.677233,16.15625 184.387207,16.15625 C186.828625,16.15625 189.025869,16.5224573 190.979004,17.2548828 C192.932139,17.9873083 194.616692,18.9638611 196.032715,20.1845703 C197.448738,21.4052795 198.571773,22.8090741 199.401855,24.3959961 C200.231938,25.9829181 200.744628,27.6430577 200.939941,29.3764648 L194.677734,29.3764648 Z M220.019531,50.8364258 C221.630867,50.8364258 223.12011,50.5922876 224.487305,50.1040039 C225.854499,49.6157202 227.032466,48.9321333 228.02124,48.0532227 C229.010015,47.174312 229.785153,46.1306213 230.34668,44.9221191 C230.908206,43.713617 231.188965,42.4013743 231.188965,40.9853516 L231.188965,37.7993164 L220.861816,38.4584961 C217.883286,38.6538096 215.637215,39.2824654 214.123535,40.3444824 C212.609856,41.4064995 211.853027,42.8896389 211.853027,44.7939453 C211.853027,45.7216843 212.042234,46.5517542 212.420654,47.2841797 C212.799074,48.0166052 213.348385,48.6513645 214.068604,49.1884766 C214.788822,49.7255886 215.649409,50.1345201 216.650391,50.4152832 C217.651372,50.6960463 218.774408,50.8364258 220.019531,50.8364258 L220.019531,50.8364258 Z M218.664551,56.3662109 C216.662588,56.3662109 214.843758,56.0915555 213.208008,55.5422363 C211.572257,54.9929172 210.168463,54.211675 208.996582,53.1984863 C207.824701,52.1852977 206.92139,50.9646068 206.286621,49.536377 C205.651852,48.1081472 205.334473,46.5151455 205.334473,44.7573242 C205.334473,41.3393384 206.591784,38.6660253 209.106445,36.7373047 C211.621106,34.8085841 215.295386,33.6977554 220.129395,33.4047852 L231.188965,32.7456055 L231.188965,29.449707 C231.188965,26.9838744 230.413826,25.0979069 228.863525,23.791748 C227.313225,22.4855892 225.073257,21.8325195 222.143555,21.8325195 C220.996088,21.8325195 219.934087,21.972899 218.95752,22.2536621 C217.980952,22.5344252 217.108158,22.9372532 216.339111,23.4621582 C215.570065,23.9870632 214.935305,24.6279259 214.434814,25.3847656 C213.934324,26.1416053 213.586427,26.9838821 213.391113,27.9116211 L207.275391,27.9116211 C207.324219,26.2514565 207.739254,24.7011791 208.520508,23.2607422 C209.301762,21.8203053 210.363763,20.5752006 211.706543,19.5253906 C213.049323,18.4755807 214.617911,17.6516143 216.412354,17.0534668 C218.206796,16.4553193 220.141591,16.15625 222.216797,16.15625 C224.560559,16.15625 226.672354,16.4553193 228.552246,17.0534668 C230.432138,17.6516143 232.04345,18.506098 233.38623,19.6169434 C234.729011,20.7277888 235.760494,22.0705488 236.480713,23.6452637 C237.200931,25.2199786 237.561035,26.97167 237.561035,28.9003906 L237.561035,56 L231.518555,56 L231.518555,49.1518555 L231.37207,49.1518555 C230.810544,50.2504938 230.090336,51.2453569 229.211426,52.1364746 C228.332515,53.0275923 227.343755,53.7844207 226.245117,54.4069824 C225.146479,55.0295441 223.956305,55.511717 222.674561,55.8535156 C221.392816,56.1953142 220.056159,56.3662109 218.664551,56.3662109 L218.664551,56.3662109 Z M254.47998,7.62353516 L254.47998,16.5224609 L262.17041,16.5224609 L262.17041,21.7958984 L254.47998,21.7958984 L254.47998,45.4897461 C254.47998,47.3208099 254.876705,48.6574665 255.670166,49.4997559 C256.463627,50.3420452 257.702628,50.7631836 259.387207,50.7631836 C259.582521,50.7631836 259.814452,50.7570801 260.083008,50.744873 C260.351564,50.732666 260.620116,50.720459 260.888672,50.708252 C261.157228,50.6960449 261.401366,50.6777345 261.621094,50.6533203 C261.840821,50.6289061 262.011718,50.6044923 262.133789,50.5800781 L262.133789,55.9633789 C261.743162,56.0610356 261.151127,56.1403806 260.357666,56.201416 C259.564205,56.2624515 258.789066,56.2929688 258.032227,56.2929688 C256.249991,56.2929688 254.730231,56.0976582 253.4729,55.7070312 C252.21557,55.3164043 251.19019,54.6999554 250.396729,53.857666 C249.603268,53.0153766 249.023439,51.9289617 248.657227,50.5983887 C248.291014,49.2678156 248.10791,47.6504001 248.10791,45.7460938 L248.10791,21.7958984 L242.614746,21.7958984 L242.614746,16.5224609 L248.10791,16.5224609 L248.10791,7.62353516 L254.47998,7.62353516 Z M269.604492,16.5224609 L275.976562,16.5224609 L275.976562,56 L269.604492,56 L269.604492,16.5224609 Z M272.790527,10.1503906 C272.229001,10.1503906 271.704104,10.0466319 271.21582,9.83911133 C270.727537,9.63159076 270.300295,9.34472839 269.934082,8.97851562 C269.567869,8.61230286 269.281007,8.18506104 269.073486,7.69677734 C268.865966,7.20849365 268.762207,6.68359656 268.762207,6.12207031 C268.762207,5.56054407 268.865966,5.03564697 269.073486,4.54736328 C269.281007,4.05907959 269.567869,3.63183777 269.934082,3.265625 C270.300295,2.89941223 270.727537,2.61254987 271.21582,2.4050293 C271.704104,2.19750873 272.229001,2.09375 272.790527,2.09375 C273.352054,2.09375 273.876951,2.19750873 274.365234,2.4050293 C274.853518,2.61254987 275.28076,2.89941223 275.646973,3.265625 C276.013185,3.63183777 276.300048,4.05907959 276.507568,4.54736328 C276.715089,5.03564697 276.818848,5.56054407 276.818848,6.12207031 C276.818848,6.68359656 276.715089,7.20849365 276.507568,7.69677734 C276.300048,8.18506104 276.013185,8.61230286 275.646973,8.97851562 C275.28076,9.34472839 274.853518,9.63159076 274.365234,9.83911133 C273.876951,10.0466319 273.352054,10.1503906 272.790527,10.1503906 L272.790527,10.1503906 Z M301.245117,56.3662109 C298.4619,56.3662109 295.95338,55.8901415 293.719482,54.9379883 C291.485585,53.9858351 289.575203,52.6369716 287.988281,50.8913574 C286.401359,49.1457432 285.180668,47.0339479 284.326172,44.5559082 C283.471675,42.0778685 283.044434,39.3130035 283.044434,36.2612305 C283.044434,33.1850432 283.471675,30.4079714 284.326172,27.9299316 C285.180668,25.4518919 286.401359,23.3400966 287.988281,21.5944824 C289.575203,19.8488682 291.485585,18.5061082 293.719482,17.5661621 C295.95338,16.626216 298.4619,16.15625 301.245117,16.15625 C304.028334,16.15625 306.536854,16.626216 308.770752,17.5661621 C311.00465,18.5061082 312.915031,19.8488682 314.501953,21.5944824 C316.088875,23.3400966 317.309566,25.4518919 318.164062,27.9299316 C319.018559,30.4079714 319.445801,33.1850432 319.445801,36.2612305 C319.445801,39.3130035 319.018559,42.0778685 318.164062,44.5559082 C317.309566,47.0339479 316.088875,49.1457432 314.501953,50.8913574 C312.915031,52.6369716 311.00465,53.9858351 308.770752,54.9379883 C306.536854,55.8901415 304.028334,56.3662109 301.245117,56.3662109 L301.245117,56.3662109 Z M301.245117,50.6899414 C303.076181,50.6899414 304.71801,50.3603549 306.170654,49.7011719 C307.623298,49.0419889 308.856196,48.0959534 309.869385,46.8630371 C310.882573,45.6301208 311.651609,44.1225675 312.176514,42.340332 C312.701419,40.5580966 312.963867,38.5317496 312.963867,36.2612305 C312.963867,33.9907113 312.701419,31.9643644 312.176514,30.1821289 C311.651609,28.3998934 310.882573,26.8862367 309.869385,25.6411133 C308.856196,24.3959899 307.623298,23.4499544 306.170654,22.8029785 C304.71801,22.1560026 303.076181,21.8325195 301.245117,21.8325195 C299.414053,21.8325195 297.772224,22.1621061 296.31958,22.8212891 C294.866936,23.480472 293.634038,24.4265075 292.62085,25.6594238 C291.607661,26.8923401 290.838626,28.3998934 290.313721,30.1821289 C289.788816,31.9643644 289.526367,33.9907113 289.526367,36.2612305 C289.526367,38.5317496 289.794919,40.5580966 290.332031,42.340332 C290.869143,44.1225675 291.638179,45.6301208 292.63916,46.8630371 C293.640142,48.0959534 294.866936,49.0419889 296.31958,49.7011719 C297.772224,50.3603549 299.414053,50.6899414 301.245117,50.6899414 L301.245117,50.6899414 Z M326.147461,16.5224609 L332.15332,16.5224609 L332.15332,22.9311523 L332.299805,22.9311523 C334.814466,18.4145282 339.111298,16.15625 345.19043,16.15625 C347.363292,16.15625 349.316398,16.49194 351.049805,17.1633301 C352.783212,17.8347202 354.260248,18.799066 355.480957,20.0563965 C356.701666,21.313727 357.635495,22.8395906 358.282471,24.6340332 C358.929447,26.4284758 359.25293,28.4487192 359.25293,30.6948242 L359.25293,56 L352.880859,56 L352.880859,31.793457 C352.880859,28.5463705 352.062996,26.0744714 350.427246,24.3776855 C348.791496,22.6808997 346.411148,21.8325195 343.286133,21.8325195 C341.674797,21.8325195 340.203864,22.1010715 338.873291,22.6381836 C337.542718,23.1752957 336.407475,23.932124 335.467529,24.9086914 C334.527583,25.8852588 333.801272,27.069329 333.288574,28.4609375 C332.775876,29.852546 332.519531,31.3906166 332.519531,33.0751953 L332.519531,56 L326.147461,56 L326.147461,16.5224609 Z M418.908691,56 L383.898926,56 L383.898926,3.15576172 L418.908691,3.15576172 L418.908691,12.2744141 L394.958496,12.2744141 L394.958496,25.0185547 L417.553711,25.0185547 L417.553711,33.5146484 L394.958496,33.5146484 L394.958496,46.8447266 L418.908691,46.8447266 L418.908691,56 Z M461.05957,56 L426.89209,56 L426.89209,3.15576172 L437.95166,3.15576172 L437.95166,46.8447266 L461.05957,46.8447266 L461.05957,56 Z M467.614746,56 L467.614746,3.15576172 L490.942383,3.15576172 C493.43263,3.15576172 495.672597,3.46093445 497.662354,4.07128906 C499.65211,4.68164368 501.342766,5.56054114 502.734375,6.70800781 C504.125984,7.85547449 505.200192,9.24095868 505.957031,10.864502 C506.713871,12.4880452 507.092285,14.3129781 507.092285,16.3393555 C507.092285,17.7797924 506.83594,19.1469662 506.323242,20.440918 C505.810544,21.7348698 505.108647,22.8945261 504.217529,23.9199219 C503.326412,24.9453176 502.276617,25.7936978 501.068115,26.4650879 C499.859613,27.136478 498.559577,27.5820302 497.167969,27.8017578 L497.167969,28.0947266 C498.950204,28.2412117 500.60424,28.6562466 502.130127,29.3398438 C503.656013,30.0234409 504.97436,30.9328557 506.085205,32.0681152 C507.19605,33.2033748 508.062741,34.5156176 508.685303,36.0048828 C509.307864,37.4941481 509.619141,39.117667 509.619141,40.8754883 C509.619141,43.1948358 509.198002,45.2883207 508.355713,47.1560059 C507.513424,49.023691 506.298836,50.6105892 504.711914,51.916748 C503.124992,53.2229069 501.202404,54.2299769 498.944092,54.9379883 C496.68578,55.6459996 494.152846,56 491.345215,56 L467.614746,56 Z M478.674316,25.128418 L486.950684,25.128418 C489.9048,25.128418 492.187492,24.5119691 493.798828,23.2790527 C495.410164,22.0461364 496.21582,20.3066519 496.21582,18.0605469 C496.21582,15.9120986 495.50782,14.2641659 494.091797,13.1166992 C492.675774,11.9692325 490.673841,11.3955078 488.085938,11.3955078 L478.674316,11.3955078 L478.674316,25.128418 Z M488.525391,47.7602539 C491.723649,47.7602539 494.158927,47.1010808 495.831299,45.7827148 C497.50367,44.4643489 498.339844,42.5356572 498.339844,39.996582 C498.339844,37.5063352 497.479257,35.6203677 495.758057,34.338623 C494.036857,33.0568784 491.540544,32.4160156 488.269043,32.4160156 L478.674316,32.4160156 L478.674316,47.7602539 L488.525391,47.7602539 Z" id="Application-ELB" sketch:type="MSShapeGroup"></path>
        </g>
    </g>
</svg>